<svg width="25" height="24" viewBox="0 0 25 24" fill="none" xmlns="http://www.w3.org/2000/svg">
<path d="M2.42018 22.08C1.96418 21.624 1.94018 21.288 1.94018 12C1.94018 0.480002 1.62818 1.44 5.30018 1.44C8.97218 1.44 8.66018 0.480002 8.66018 12C8.66018 23.52 8.97218 22.56 5.30018 22.56C3.21218 22.56 2.82818 22.488 2.42018 22.08ZM7.70018 18.72C7.70018 18.264 7.53218 18.24 5.30018 18.24C3.06818 18.24 2.90018 18.264 2.90018 18.72C2.90018 19.176 3.06818 19.2 5.30018 19.2C7.53218 19.2 7.70018 19.176 7.70018 18.72ZM7.70018 16.8C7.70018 16.344 7.53218 16.32 5.30018 16.32C3.06818 16.32 2.90018 16.344 2.90018 16.8C2.90018 17.256 3.06818 17.28 5.30018 17.28C7.53218 17.28 7.70018 17.256 7.70018 16.8ZM7.70018 5.76C7.70018 5.304 7.53218 5.28 5.30018 5.28C3.06818 5.28 2.90018 5.304 2.90018 5.76C2.90018 6.216 3.06818 6.24 5.30018 6.24C7.53218 6.24 7.70018 6.216 7.70018 5.76Z" fill="black"/>
<path d="M9.62001 22.08C9.16401 21.624 9.14001 21.288 9.14001 14.16C9.14001 5.112 8.87601 5.76 12.5 5.76C16.124 5.76 15.86 5.112 15.86 14.16C15.86 23.208 16.124 22.56 12.5 22.56C10.412 22.56 10.028 22.488 9.62001 22.08ZM14.9 19.2C14.9 18.744 14.732 18.72 12.5 18.72C10.268 18.72 10.1 18.744 10.1 19.2C10.1 19.656 10.268 19.68 12.5 19.68C14.732 19.68 14.9 19.656 14.9 19.2ZM14.9 10.08C14.9 9.624 14.732 9.6 12.5 9.6C10.268 9.6 10.1 9.624 10.1 10.08C10.1 10.536 10.268 10.56 12.5 10.56C14.732 10.56 14.9 10.536 14.9 10.08Z" fill="black"/>
<path d="M16.8201 22.08C16.3641 21.624 16.3401 21.288 16.3401 12C16.3401 0.480002 16.0281 1.44 19.7001 1.44C23.3721 1.44 23.0601 0.480002 23.0601 12C23.0601 23.52 23.3721 22.56 19.7001 22.56C17.6121 22.56 17.2281 22.488 16.8201 22.08ZM22.1001 18.72C22.1001 18.264 21.9321 18.24 19.7001 18.24C17.4681 18.24 17.3001 18.264 17.3001 18.72C17.3001 19.176 17.4681 19.2 19.7001 19.2C21.9321 19.2 22.1001 19.176 22.1001 18.72ZM22.1001 16.8C22.1001 16.344 21.9321 16.32 19.7001 16.32C17.4681 16.32 17.3001 16.344 17.3001 16.8C17.3001 17.256 17.4681 17.28 19.7001 17.28C21.9321 17.28 22.1001 17.256 22.1001 16.8ZM22.1001 5.76C22.1001 5.304 21.9321 5.28 19.7001 5.28C17.4681 5.28 17.3001 5.304 17.3001 5.76C17.3001 6.216 17.4681 6.24 19.7001 6.24C21.9321 6.24 22.1001 6.216 22.1001 5.76Z" fill="black"/>
</svg>
