<svg width="24" height="24" viewBox="0 0 24 24" fill="none" xmlns="http://www.w3.org/2000/svg">
<g clip-path="url(#clip0_57122_67993)">
<path d="M10.6801 3.47998C10.2961 3.83998 10.0801 4.34398 10.0801 4.79998C10.0801 5.25598 10.2961 5.75998 10.6801 6.11998C11.8561 7.31998 13.9201 6.47998 13.9201 4.79998C13.9201 3.81598 12.9841 2.87998 12.0001 2.87998C11.5441 2.87998 11.0401 3.09598 10.6801 3.47998ZM12.7201 4.19998C13.3441 4.96798 12.4081 6.14398 11.5921 5.61598C10.7521 5.08798 11.0401 3.83998 12.0001 3.83998C12.2401 3.83998 12.5521 4.00798 12.7201 4.19998Z" fill="#E4002B"/>
<path d="M2.51985 4.92C1.31985 6.096 2.15985 8.16 3.83985 8.16C4.82385 8.16 5.75985 7.224 5.75985 6.24C5.75985 5.256 4.82385 4.32 3.83985 4.32C3.38385 4.32 2.87985 4.536 2.51985 4.92ZM4.55985 5.64C5.18385 6.408 4.24785 7.584 3.43185 7.056C2.59185 6.528 2.87985 5.28 3.83985 5.28C4.07985 5.28 4.39185 5.448 4.55985 5.64Z" fill="#E4002B"/>
<path d="M18.8402 4.92C18.4562 5.28 18.2402 5.784 18.2402 6.24C18.2402 6.696 18.4562 7.2 18.8402 7.56C19.2002 7.944 19.7042 8.16 20.1602 8.16C20.6162 8.16 21.1202 7.944 21.4802 7.56C21.8642 7.2 22.0802 6.696 22.0802 6.24C22.0802 5.784 21.8642 5.28 21.4802 4.92C21.1202 4.536 20.6162 4.32 20.1602 4.32C19.7042 4.32 19.2002 4.536 18.8402 4.92ZM20.8802 5.64C21.5042 6.408 20.5682 7.584 19.7522 7.056C18.9122 6.528 19.2002 5.28 20.1602 5.28C20.4002 5.28 20.7122 5.448 20.8802 5.64Z" fill="#E4002B"/>
<path d="M10.4398 7.416C9.31184 7.92 8.78384 8.832 8.68784 10.44L8.59184 11.976L7.70384 12.048C7.12784 12.096 6.83984 12.24 6.83984 12.48C6.83984 12.792 7.58384 12.84 11.9998 12.84C16.4158 12.84 17.1598 12.792 17.1598 12.48C17.1598 12.24 16.8718 12.096 16.2958 12.048L15.4078 11.976L15.3118 10.416C15.2398 9.072 15.1198 8.76 14.4478 8.112C13.8238 7.464 13.5118 7.344 12.3118 7.272C11.5438 7.248 10.7038 7.296 10.4398 7.416ZM13.7998 8.76C14.3038 9.24 14.3998 9.576 14.3998 10.68V12H11.9998H9.59984V10.68C9.59984 8.856 10.2478 8.16 11.9998 8.16C12.9838 8.16 13.3438 8.28 13.7998 8.76Z" fill="#E4002B"/>
<path d="M2.51992 9.24C1.94392 9.792 1.91992 9.96 1.91992 12.72C1.91992 15.48 1.94392 15.648 2.51992 16.2C3.02392 16.728 3.31192 16.8 4.67992 16.8H6.23992V18.48C6.23992 19.848 6.33592 20.256 6.71992 20.64C7.31992 21.24 8.03992 21.24 8.63992 20.64C9.04792 20.232 9.11992 19.848 9.11992 17.64C9.11992 15.264 9.07192 15.072 8.51992 14.52C8.08792 14.064 7.67992 13.92 6.83992 13.92H5.75992V12.096C5.75992 10.272 5.51992 9.48 4.82392 8.952C4.19992 8.472 3.14392 8.592 2.51992 9.24ZM4.51192 9.912C4.65592 10.08 4.82392 11.256 4.84792 12.504L4.91992 14.76L6.28792 14.832C7.05592 14.88 7.75192 15.048 7.91992 15.216C8.08792 15.432 8.15992 16.392 8.11192 17.784C8.06392 19.608 7.96792 20.04 7.67992 20.04C7.39192 20.04 7.29592 19.608 7.19992 18L7.07992 15.96L5.27992 15.888C4.29592 15.84 3.35992 15.696 3.19192 15.552C2.78392 15.216 2.75992 10.296 3.16792 9.888C3.55192 9.504 4.19992 9.528 4.51192 9.912Z" fill="#E4002B"/>
<path d="M19.1759 8.952C18.4799 9.48 18.2399 10.272 18.2399 12.096V13.92H17.1599C16.3199 13.92 15.9119 14.064 15.4799 14.52C14.9279 15.072 14.8799 15.264 14.8799 17.64C14.8799 19.848 14.9519 20.232 15.3599 20.64C15.9599 21.24 16.6799 21.24 17.2799 20.64C17.6639 20.256 17.7599 19.848 17.7599 18.48V16.8H19.3199C20.6879 16.8 20.9759 16.728 21.4799 16.2C22.0559 15.648 22.0799 15.48 22.0799 12.72C22.0799 9.96 22.0559 9.792 21.4799 9.24C20.8559 8.592 19.7999 8.472 19.1759 8.952ZM20.8319 9.888C21.2399 10.296 21.2159 15.216 20.8079 15.552C20.6399 15.696 19.7039 15.84 18.7199 15.888L16.9199 15.96L16.7999 18C16.7039 19.608 16.6079 20.04 16.3199 20.04C16.0319 20.04 15.9359 19.608 15.8879 17.784C15.8399 16.392 15.9119 15.432 16.0799 15.216C16.2479 15.048 16.9439 14.88 17.7119 14.832L19.0799 14.76L19.1519 12.504C19.1759 11.256 19.3439 10.08 19.4879 9.912C19.7999 9.528 20.4479 9.504 20.8319 9.888Z" fill="#E4002B"/>
<path d="M0.168 11.184C0.072 11.28 0 12.456 0 13.8C0 15.936 0.072 16.344 0.552 17.064C1.296 18.192 2.472 18.744 3.96 18.672C4.848 18.624 5.16 18.504 5.16 18.24C5.16 17.976 4.8 17.856 3.84 17.76C2.376 17.616 1.608 17.256 1.296 16.632C1.2 16.392 1.032 15.072 0.96 13.704C0.84 11.4 0.624 10.728 0.168 11.184Z" fill="#E4002B"/>
<path d="M23.2078 11.184C23.1118 11.28 23.0398 12.384 23.0398 13.608C23.0398 15.984 22.7278 17.064 21.9118 17.4C21.6718 17.52 20.8798 17.664 20.1598 17.736C19.1998 17.832 18.8398 17.976 18.8398 18.24C18.8398 18.84 21.6238 18.72 22.4878 18.096C23.7118 17.208 24.0238 16.248 23.9518 13.584C23.8798 11.376 23.6878 10.728 23.2078 11.184Z" fill="#E4002B"/>
</g>
<defs>
<clipPath id="clip0_57122_67993">
<rect width="24" height="24" fill="white"/>
</clipPath>
</defs>
</svg>
