<svg width="428" height="428" viewBox="0 0 428 428" fill="none" xmlns="http://www.w3.org/2000/svg">
<path d="M124.509 194.545C129.857 191.728 135.015 188.507 140.384 185.83C140.384 152.524 140.384 119.217 140.384 85.9113C169.631 69.6691 198.53 52.6113 227.447 35.703C230.669 32.2416 234.342 34.6478 237.501 36.7302C235.082 34.6945 231.276 31.7156 228.381 34.7692C199.255 51.9327 169.765 69.0216 140.465 85.6809C139.55 117.658 140.334 150.208 140.073 182.406C141.268 187.022 135.64 187.24 133.131 189.472C130.258 191.14 127.08 192.513 124.509 194.545Z" fill="#E4002B"/>
<path d="M124.509 194.545C124.509 194.545 124.347 194.511 124.198 194.545C122.178 196.17 119.666 197.316 117.35 198.592C117.35 198.592 117.188 198.561 117.039 198.592C110.732 202.607 103.943 206.031 97.4284 209.798C97.4284 209.798 97.2665 209.767 97.1171 209.798C94.1164 211.921 90.6955 213.558 87.4676 215.401C87.4676 215.401 87.312 215.385 87.1564 215.401C78.945 220.39 70.3352 224.935 61.9433 229.719C61.9433 229.719 61.7876 229.704 61.632 229.719C60.9597 230.398 60.0289 230.859 59.1418 231.276C59.1418 231.276 58.98 231.241 58.8305 231.276C56.9193 232.462 54.8027 234.015 54.1615 236.256C54.1552 236.412 54.1615 236.723 54.1615 236.879C54.1615 238.955 54.1615 241.028 54.1615 243.104C54.1615 244.972 54.1615 246.839 54.1615 248.707C54.1615 274.334 54.1615 299.964 54.1615 325.591C54.4976 328.386 53.4611 331.166 54.4727 333.684C56.2719 336.657 60.1659 337.538 62.5658 339.91C62.5658 339.91 62.7401 339.86 62.8771 339.91C66.0894 341.983 69.5881 343.779 72.5265 346.135C72.5265 346.135 72.7009 346.085 72.8378 346.135C81.2671 351.374 89.8551 356.554 98.0509 362.01C98.0509 362.01 98.2501 361.942 98.3622 362.01C111.489 370.396 124.957 378.392 137.894 386.912C169.298 368.541 200.491 349.783 231.898 331.505C233.339 326.114 232.113 319.366 232.521 313.452C232.521 288.341 232.521 263.234 232.521 238.124C222.264 234.233 213.269 227.251 203.361 222.46C201.642 220.568 197.278 220.141 197.036 217.891C186.813 213.903 178.048 206.732 168.087 202.016C169.974 201.154 165.815 200.136 164.903 199.286C163.658 200.22 161.728 197.864 160.281 197.372C159.222 196.447 155.45 195.682 156.57 194.234C155.68 193.898 154.858 193.363 153.769 193.612C155.316 192.625 152.654 192.472 151.901 192.055C152.091 190.605 150.314 189.97 149.1 189.876C149.19 189.179 150.071 189.462 150.656 188.943C149.806 188.339 147.537 187.05 149.1 186.452C148.381 186.272 146.339 185.531 147.543 184.896C146.768 184.432 146.332 184.999 146.298 185.83C144.888 182.904 149.987 185.824 151.59 186.141C150.861 187.641 155.188 188.457 156.477 189.658C181.861 203.13 206.931 217.296 232.209 231.587C246.316 224.007 259.754 215.04 273.92 207.619C275.884 205.888 278.558 204.895 280.768 203.572C278.119 202.937 275.003 204.257 272.052 203.884C265.503 206.414 261.572 198.825 255.555 199.215C254.602 198.981 253.665 198.673 252.753 198.281C249.694 198.539 246.92 196.077 244.349 196.102C243.842 196.506 243.278 197.204 242.481 197.036C242.923 196.718 243.387 196.071 244.038 196.102C244.651 194.882 243.3 196.17 242.793 196.102C241.314 197.447 240.427 196.416 238.986 196.656C237.184 198.013 236.785 195.741 234.7 197.036C235.967 195.495 233.318 196.939 233.069 196.348C227.151 196.326 220.708 193.552 215.167 195.04C213.894 193.552 210.268 195.7 207.93 194.545C204.827 194.626 201.281 195.289 198.514 192.756C192.139 188.009 185.304 192.98 178.359 190.188C175.253 189.662 171.658 190.228 168.71 189.565C165.189 188.837 161.824 187.445 158.749 185.519C158.061 184.454 158.618 182.773 158.438 181.472C158.712 180.538 157.7 177.5 159.372 178.359C159.291 177.566 158.095 177.494 158.749 176.492C162.419 178.723 165.862 181.656 169.644 183.651C167.62 181.192 164.249 180.435 162.173 178.048C164.782 179.072 166.858 181.372 169.644 182.095C168.747 180.753 164.433 179.981 166.531 178.982C164.249 178.403 162.78 176.168 161.239 174.624C163.191 175.287 164.467 177.279 166.22 178.359C165.438 176.871 166.344 176.037 167.465 177.425C166.005 177.597 167.437 177.945 166.531 178.671C167.673 179.309 168.679 180.242 169.955 180.538C169.939 180.386 169.955 180.227 169.955 180.227C169.538 180 169.133 179.81 168.71 179.604C169.522 178.982 169.382 177.656 168.71 176.803C167.623 177.905 164.978 174.932 163.418 174.001C164.816 174.238 165.796 175.552 167.153 175.869C164.679 173.5 161.227 172.308 159.06 169.644C160.446 170.378 159.792 169.781 160.617 169.332C161.323 169.868 162.491 171.325 160.928 170.266C161.37 171.941 163.552 172.165 164.585 173.457C165.557 174.565 168.62 174.889 168.087 176.492C168.757 176.177 169.214 176.489 169.955 176.492C169.955 176.078 169.955 175.661 169.955 175.247C167.773 175.617 165.214 173.379 163.418 171.823C165.342 172.479 166.845 174.073 168.71 174.935C166.03 172.037 161.227 170.381 158.749 167.153C162.459 169.532 166.024 172.106 169.644 174.624C168.38 172.585 165.606 171.521 163.705 169.98C162.045 168.42 158.071 167.306 159.06 164.975C159.879 165.196 160.807 165.74 161.239 166.531C162.164 165.401 164.495 167.592 164.975 168.71C164.072 168.47 163.842 167.43 162.796 167.465C163.991 168.467 163.216 168.234 162.796 169.021C165.261 170.045 167.225 172.277 169.644 173.379C168.069 171.368 165.413 170.534 163.729 168.71C165.787 169.491 167.648 171.1 169.332 172.445C170.011 172.246 168.906 171.331 169.955 171.511C169.955 171.356 169.955 171.2 169.955 171.2C169.538 170.973 169.133 170.783 168.71 170.577C169.728 169.718 167.683 168.971 169.644 169.021C168.579 168.237 167.241 168.262 166.22 167.465C169.223 167.729 165.227 165.796 164.041 164.975C164.128 165.796 165.252 166.126 165.908 166.531C164.763 167.306 166.12 167.664 166.842 168.71C164.716 167.608 162.431 166.114 160.928 164.352C161.143 166.008 158.874 164.561 158.749 163.418C160.844 164.66 159.035 163.253 160.305 162.796C158.335 162.413 159.06 160.667 158.749 159.372C159.418 159.835 160.038 160.467 160.617 160.928C163.129 160.193 165.364 163.866 168.087 164.663C165.55 162.108 161.7 160.626 159.06 157.815C160.474 157.977 161.23 159.465 162.484 159.994C162.238 158.78 160.47 158.425 159.994 157.193C161.815 158.313 163.574 159.736 165.597 160.617C165.482 159.611 163.888 159.58 163.418 158.749C165.015 158.737 165.952 160.34 167.465 160.617C165.519 158.911 162.512 157.426 160.305 155.636C160.645 156.489 161.871 156.829 161.862 157.815C160.343 156.738 158.936 155.089 158.749 154.08C159.235 153.28 159.764 154.634 160.305 154.703C160.389 153.847 159.281 153.557 159.06 152.835C160.389 152.844 160.461 155.032 161.862 154.08C161.227 153.047 159.652 152.991 159.06 151.901C160.156 151.917 160.76 153.137 161.862 153.146C160.853 152.396 160.872 151.559 162.095 152.601C163.424 153.594 163.225 153.333 162.484 154.08C163.826 154.74 163.664 153.952 164.663 153.457C166.008 155.064 167.978 155.966 169.644 157.193C168.632 155.179 165.379 154.553 164.352 152.524C166.123 153.504 167.627 154.871 169.332 155.948C169.273 154.195 167.206 154.426 166.531 153.146C167.188 152.966 167.941 154.226 168.399 153.457C166.683 152.608 165.177 151.328 163.418 150.656C163.767 151.733 165.183 151.571 165.597 152.524C163.96 152.057 162.319 151.058 161.239 149.722C160.352 150.012 160.402 150.606 161.239 151.279C160.256 151.238 159.649 150.317 158.749 150.033C160.554 149.865 159.169 149.772 158.749 148.477C160.906 149.872 158.432 147.674 159.06 146.921C162.531 149.19 166.048 151.599 169.644 153.769C170.344 151.97 168.15 151.767 167.776 150.656C169.479 151.447 168.651 151.039 169.332 150.033C167.788 149.159 166.229 148.107 164.975 146.921C165.855 146.843 166.313 147.855 167.153 147.855C166.238 146.469 164.567 146.099 163.107 145.676C163.767 147.136 165.799 147.895 166.842 149.1C166.357 149.149 166.027 150.012 165.286 149.411C164.769 146.426 159.235 145.442 158.749 142.563C160.411 142.989 160.984 145.028 162.484 145.676C162.201 144.546 160.872 143.982 160.305 142.874C162.584 144.125 162.923 145.15 165.597 145.987C165.473 144.904 163.77 144.885 163.418 143.808C165.118 144.399 166.49 145.753 168.087 146.609C166.805 147.372 169.015 148.262 169.644 148.788C169.834 147.848 168.554 147.988 168.399 147.232C169.32 147.587 169.824 147.512 169.021 146.609C169.332 146.609 169.644 146.609 169.955 146.609C170.051 135.93 169.784 124.531 170.051 114.33C184.155 106.032 197.459 96.451 211.354 87.7789C211.304 87.642 211.354 87.4676 211.354 87.4676C211.354 87.312 211.354 87.1564 211.354 87.1564C210.349 87.4458 209.468 88.1711 208.553 88.7127C208.441 88.7812 208.241 88.7127 208.241 88.7127C207.432 89.6621 206.215 90.266 205.129 90.8916C204.992 90.9414 204.817 90.8916 204.817 90.8916C201.667 93.441 197.823 95.3864 194.545 97.7396C191.514 100.575 187.607 102.178 184.202 104.516C180.971 107.078 176.317 108.525 174.001 111.747C173.454 110.278 172.249 112.861 171.511 111.747C168.604 114.072 165.687 110.819 163.107 109.568C163.001 108.787 164.24 108.79 164.352 108.012C163.561 108.616 162.515 109.366 161.551 108.634C169.021 102.017 178.428 97.4782 186.764 91.8254C186.739 91.6729 186.701 91.3274 186.764 91.2029C177.32 97.0735 167.483 102.729 158.438 108.945C158.41 109.095 158.438 109.257 158.438 109.257C158.438 126.479 158.438 143.705 158.438 160.928C158.077 166.388 159.16 172.367 157.893 177.503C154.208 179.626 150.575 182.185 146.609 183.651C145.747 183.567 145.031 182.96 144.119 183.028C144.119 151.59 144.119 120.151 144.119 88.7127C144.95 88.7127 145.778 88.7127 146.609 88.7127C148.281 88.2147 149.915 87.2155 151.279 86.2225C150.821 85.1424 150.205 86.6801 149.722 85.6C148.854 88.4668 145.109 88.7843 144.119 86.5338C173.712 69.3889 203.675 52.3125 232.832 34.8625C233.255 37.085 233.206 39.5472 234.7 41.3993C235.612 42.6973 237.532 42.9027 238.435 44.2007C238.569 44.2536 238.746 44.2007 238.746 44.2007C262.148 58.1738 285.636 71.6705 309.119 85.2638C312.639 87.3151 317.993 88.5104 316.253 94.0044C316.048 120.413 316.667 147.229 315.942 173.379C316.073 176.389 315.705 179.246 315.942 182.095C315.998 182.325 315.926 182.689 315.631 182.717C316.057 183.458 316.897 182.698 317.498 182.717C317.629 182.661 317.809 182.717 317.809 182.717C318.074 182.119 318.759 181.852 319.366 181.783C319.366 154.6 319.366 127.413 319.366 100.23C320.3 95.6479 317.081 88.5664 321.856 86.2225C320.502 84.9868 318.382 84.551 317.187 83.1098C317.187 83.1098 317.025 83.1409 316.876 83.1098C315.848 82.6024 314.497 82.1729 313.763 81.2422C313.763 81.2422 313.585 81.2951 313.452 81.2422C288.008 66.768 262.531 52.132 237.812 36.7302C237.812 36.7302 237.635 36.7831 237.501 36.7302C234.342 34.6478 230.669 32.2416 227.447 35.703C198.53 52.6113 169.631 69.6691 140.384 85.9113C140.384 119.217 140.384 152.524 140.384 185.83C135.015 188.507 129.857 191.728 124.509 194.545Z" fill="#E4002B"/>
<path d="M151.279 86.2225C177.388 72.0161 202.632 56.0789 228.785 42.0218C228.932 41.9876 229.097 42.0218 229.097 42.0218C230.102 40.5028 232.063 40.5588 232.832 40.1542C232.832 45.2373 232.832 50.3235 232.832 55.4065C232.262 51.7927 232.602 47.4442 232.209 43.8895C231.634 44.9416 230.666 46.2396 229.097 46.0684C229.358 46.638 229.215 47.7679 228.785 48.2473C229.386 48.9694 229.106 49.6387 229.097 50.7375C229.719 51.2915 229.427 50.1336 229.719 49.8036C229.897 50.4791 231.229 50.6192 230.653 51.36C231.96 51.3382 230.737 49.7694 231.276 49.1811C232.076 50.4915 232.356 51.2791 231.276 52.6051C233.616 51.8207 231.117 56.661 232.135 56.4618C232.583 74.0207 232.639 91.5235 232.209 109.568C231.964 113.263 232.804 117.571 231.587 120.774C232.069 120.291 232.888 120.204 233.143 119.529C233.781 120.145 234.242 119.921 233.766 121.085C234.23 121.172 234.818 121.079 234.7 120.463C234.656 120.319 234.7 119.996 234.7 119.84C234.7 119.684 234.7 119.529 234.7 119.529C233.153 117.381 234.553 113.191 234.077 110.191C234.077 88.5042 234.077 66.8209 234.077 45.1345C233.601 44.1603 233.402 41.1036 234.388 41.3993C234.488 41.474 234.7 41.3993 234.7 41.3993C233.206 39.5472 233.255 37.085 232.832 34.8625C203.675 52.3125 173.712 69.3889 144.119 86.5338C145.109 88.7843 148.854 88.4668 149.722 85.6C150.205 86.6801 150.821 85.1424 151.279 86.2225Z" fill="#E4002B"/>
<path d="M237.812 36.7302C262.988 51.7584 288.329 66.3851 313.452 81.2422C288.008 66.768 262.531 52.132 237.812 36.7302Z" fill="#E4002B"/>
<path d="M229.097 42.0218C229.097 42.4358 229.097 42.8529 229.097 43.2669C230.062 43.7743 229.651 44.0389 230.342 44.8233C229.825 44.9914 229.617 45.6201 229.097 45.7571C229.078 45.9096 229.097 46.0684 229.097 46.0684C230.666 46.2396 231.634 44.9416 232.209 43.8895C232.602 47.4442 232.262 51.7927 232.832 55.4065C232.832 50.3235 232.832 45.2373 232.832 40.1542C232.063 40.5588 230.102 40.5028 229.097 42.0218Z" fill="#7D0013"/>
<path d="M234.077 44.8233C234.077 44.098 234.077 43.3696 234.077 42.6444C234.164 42.2459 233.841 41.5549 234.388 41.3993C233.402 41.1036 233.601 44.1603 234.077 44.8233Z" fill="#7D0013"/>
<path d="M234.077 42.6444C234.08 42.6226 234.388 42.6444 234.388 42.6444C234.388 42.3331 234.388 42.0218 234.388 41.7105C235.739 42.5728 236.966 43.5626 238.435 44.2007C237.532 42.9027 235.612 42.6973 234.7 41.3993C234.7 41.3993 234.488 41.474 234.388 41.3993C233.841 41.5549 234.164 42.2459 234.077 42.6444Z" fill="#E4002B"/>
<path d="M151.279 86.2225C149.915 87.2155 148.281 88.2147 146.609 88.7127C145.165 95.7848 146.395 103.719 145.987 111.124C145.987 118.906 145.987 126.688 145.987 134.47C145.778 145.209 146.401 156.359 145.676 166.842C145.676 170.991 145.676 175.144 145.676 179.293C146.357 180.255 145.809 181.833 145.987 183.028C146.245 183.156 146.569 183.33 146.609 183.651C150.575 182.185 154.208 179.626 157.893 177.503C159.16 172.367 158.077 166.388 158.438 160.928C158.438 143.705 158.438 126.479 158.438 109.257C157.713 129.521 158.335 150.391 158.127 170.889C158.572 174.658 158.4 178.465 154.173 179.386C151.552 180.099 148.717 183.959 146.323 182.689C146.043 154.581 146.466 125.393 146.298 96.8058C146.357 93.3165 145.231 88.5789 149.629 87.6855C176.124 72.9966 202.137 56.8228 228.474 42.6444C228.683 48.4029 228.06 54.5723 228.785 60.0756C229.134 57.1061 228.714 53.5451 229.097 50.7375C229.106 49.6387 229.386 48.9694 228.785 48.2473C228.785 47.0022 228.785 45.7571 228.785 44.512C228.785 44.3564 228.785 44.0451 228.785 43.8895C228.785 43.2669 228.785 42.6444 228.785 42.0218C202.632 56.0789 177.388 72.0161 151.279 86.2225Z" fill="#E4002B"/>
<path d="M228.785 43.8895C229.128 43.8801 229.038 43.4723 229.097 43.2669C229.097 42.8529 229.097 42.4358 229.097 42.0218C229.097 42.0218 228.932 41.9876 228.785 42.0218C228.785 42.6444 228.785 43.2669 228.785 43.8895Z" fill="#E4002B"/>
<path d="M234.077 45.1345C234.077 66.8209 234.077 88.5042 234.077 110.191C234.553 113.191 233.153 117.381 234.7 119.529C234.13 117.888 234.485 115.999 234.388 114.237C234.388 90.3718 234.388 66.5096 234.388 42.6444C234.388 42.6444 234.08 42.6226 234.077 42.6444C234.077 43.3696 234.077 44.098 234.077 44.8233V45.1345Z" fill="#E4002B"/>
<path d="M228.785 43.8895C228.785 44.0451 228.785 44.3564 228.785 44.512C229.283 44.677 229.013 45.368 229.097 45.7571C229.617 45.6201 229.825 44.9914 230.342 44.8233C229.651 44.0389 230.062 43.7743 229.097 43.2669C229.038 43.4723 229.128 43.8801 228.785 43.8895Z" fill="#E4002B"/>
<path d="M315.942 173.379C316.667 147.229 316.048 120.413 316.253 94.0044C317.993 88.5104 312.639 87.3151 309.119 85.2638C285.636 71.6705 262.148 58.1738 238.746 44.2007C261.615 58.6656 285.309 71.6955 308.711 85.3603C312.151 87.5206 317.623 88.5602 315.942 94.0044C315.942 120.463 315.942 146.921 315.942 173.379Z" fill="#E4002B"/>
<path d="M228.785 48.2473C229.215 47.7679 229.358 46.638 229.097 46.0684C229.097 46.0684 229.078 45.9096 229.097 45.7571C229.013 45.368 229.283 44.677 228.785 44.512C228.785 45.7571 228.785 47.0022 228.785 48.2473Z" fill="#E4002B"/>
<path d="M229.097 50.7375C228.714 53.5451 229.134 57.1061 228.785 60.0756C228.785 60.0756 228.742 60.2437 228.785 60.3869C229.125 61.4203 229.178 62.6499 228.785 63.8109C228.785 63.8109 228.739 63.9821 228.785 64.1222C228.938 66.5906 229.075 69.5975 228.785 71.904C230.622 70.5873 228.048 73.9677 228.972 74.9389C229.732 76.0128 228.396 77.5412 229.09 79.0726C229.775 80.6041 227.964 84.5386 230.031 84.3549C227.705 86.4249 229.869 89.3259 228.807 91.536C229.349 93.9359 228.107 97.9015 230.031 99.6073C228.25 101.951 229.654 104.597 228.474 107.078C229.651 107.788 230.513 109.21 231.898 109.568C232.01 109.5 232.209 109.568 232.209 109.568C232.639 91.5235 232.583 74.0207 232.135 56.4618C231.117 56.661 233.616 51.8207 231.276 52.6051C232.356 51.2791 232.076 50.4915 231.276 49.1811C230.737 49.7694 231.96 51.3382 230.653 51.36C231.229 50.6192 229.897 50.4791 229.719 49.8036C229.427 50.1336 229.719 51.2915 229.097 50.7375Z" fill="#E4002B"/>
<path d="M228.785 60.3869C229.125 61.4203 229.178 62.6499 228.785 63.8109C228.3 62.9985 228.25 61.1775 228.785 60.3869Z" fill="#E4002B"/>
<path d="M225.984 110.813C227.911 110.06 226.678 108.282 226.918 106.767C227.466 106.751 227.873 107.243 228.474 107.078C229.654 104.597 228.25 101.951 230.031 99.6073C228.107 97.9015 229.349 93.9359 228.807 91.536C229.869 89.3259 227.705 86.4249 230.031 84.3549C227.964 84.5386 229.775 80.6041 229.09 79.0726C228.396 77.5412 229.732 76.0128 228.972 74.9389C228.048 73.9677 230.622 70.5873 228.785 71.904C229.075 69.5975 228.938 66.5906 228.785 64.1222C228.088 75.521 228.81 86.8015 228.54 97.668C227.628 100.264 230.382 106.919 226.607 106.455C226.258 108.388 227.142 109.406 225.984 110.813Z" fill="#E4002B"/>
<path d="M313.763 81.2422C314.759 81.9239 316.191 82.0764 316.876 83.1098C315.848 82.6024 314.497 82.1729 313.763 81.2422Z" fill="#F5F6F8"/>
<path d="M321.856 86.2225C321.918 86.1478 322.167 86.2225 322.167 86.2225C322.416 86.263 322.513 86.5618 322.79 86.5338C321.283 84.9339 319.017 84.2958 317.187 83.1098C318.382 84.551 320.502 84.9868 321.856 86.2225Z" fill="#F5F6F8"/>
<path d="M317.809 182.717C318.36 182.266 319.123 182.54 319.677 182.095C320.365 183.645 321.314 185.543 321.545 186.764C323.621 184.261 321.931 180 322.479 176.803C322.27 146.637 322.893 116.251 322.167 86.2225C322.167 86.2225 321.918 86.1478 321.856 86.2225C317.081 88.5664 320.3 95.6479 319.366 100.23C319.366 127.413 319.366 154.6 319.366 181.783C318.759 181.852 318.074 182.119 317.809 182.717Z" fill="#E4002B"/>
<path d="M322.479 176.803C322.479 176.79 322.79 176.803 322.79 176.803C323.045 170.805 322.746 164.838 322.79 158.749C322.79 157.401 322.79 156.05 322.79 154.703C322.79 153.769 322.79 152.835 322.79 151.901C322.79 151.07 322.79 150.242 322.79 149.411C322.79 148.477 322.79 147.543 322.79 146.609C322.79 144.222 322.79 141.838 322.79 139.45C322.877 135.254 322.933 131.257 322.79 126.999C322.79 126.168 322.79 125.34 322.79 124.509C322.79 123.678 322.79 122.85 322.79 122.019C322.79 121.188 322.79 120.36 322.79 119.529C322.79 118.698 322.79 117.87 322.79 117.039C322.79 116.416 322.79 115.793 322.79 115.171C322.79 115.015 322.79 114.704 322.79 114.548C322.79 112.058 322.79 109.568 322.79 107.078C323.061 101.665 322.637 96.1739 322.79 90.5804C322.79 89.8551 322.79 89.1267 322.79 88.4015C322.79 87.7789 322.79 87.1564 322.79 86.5338C322.513 86.5618 322.416 86.263 322.167 86.2225C322.893 116.251 322.27 146.637 322.479 176.803Z" fill="#E4002B"/>
<path d="M211.354 87.1564C210.349 87.4458 209.468 88.1711 208.553 88.7127C209.125 87.9096 210.601 86.7486 211.354 87.1564Z" fill="#F5F6F8"/>
<path d="M211.354 87.7789C211.532 88.0715 211.712 88.3454 211.665 88.7127C211.665 88.8684 211.665 89.024 211.665 89.024C210.364 91.6885 205.434 93.1421 202.732 95.3428C193.257 101.789 183.34 107.722 174.001 114.237C177.096 115.012 180.093 119.401 183.262 116.338C194.813 108.917 206.495 101.705 217.891 94.0044C216.693 93.2978 217.471 90.8823 218.825 91.8254C216.935 91.315 214.358 89.5625 212.288 89.3353C212.207 88.6442 211.812 87.9314 211.354 87.4676C211.354 87.4676 211.304 87.642 211.354 87.7789Z" fill="#F5F6F8"/>
<path d="M169.955 146.609C169.955 154.805 169.955 163.004 169.955 171.2C169.955 171.2 169.955 171.356 169.955 171.511C169.955 172.756 169.955 174.001 169.955 175.247C169.955 175.661 169.955 176.078 169.955 176.492C169.955 177.737 169.955 178.982 169.955 180.227C169.955 180.227 169.939 180.386 169.955 180.538C169.939 183.091 169.799 185.998 169.955 188.32C167.785 188.379 165.877 186.826 163.829 187.28C162.145 187.243 159.608 184.753 158.749 185.519C161.824 187.445 165.189 188.837 168.71 189.565C172.124 189.836 175.412 188.152 178.359 190.188C185.304 192.98 192.139 188.009 198.514 192.756C201.281 195.289 204.827 194.626 207.93 194.545C215.902 191.093 223.758 195.585 233.168 195.501C234.584 195.89 238.469 193.058 237.501 195.479C238.398 195.551 238.681 194.2 239.68 194.545C239.518 194.903 238.108 195.367 238.746 195.791C240.284 195.022 241.868 194.608 239.991 193.612C241.625 193.447 241.818 194.181 243.415 192.989C244.293 194.038 242.444 194.595 242.17 195.479C243.443 194.844 243.916 194.841 242.793 196.102C243.3 196.17 244.651 194.882 244.038 196.102C244.187 196.071 244.349 196.102 244.349 196.102C246.92 196.077 249.694 198.539 252.753 198.281C250.469 197.197 246.54 196.749 245.242 194.882C243.182 193.098 243.001 188.927 241.548 186.764C237.71 189.484 233.682 191.999 229.408 193.923C224.733 194.206 220.098 190.256 221.626 185.207C221.626 174.21 221.626 163.21 221.626 152.212C221.128 147.16 222.812 141.421 220.381 136.96C219.992 136.867 219.849 136.39 219.447 136.337C219.447 153.666 219.447 170.991 219.447 188.32C219.622 189.736 219.161 191.109 219.447 192.367C216.509 191.853 213.269 190.832 211.354 188.32C210.682 187.461 211.214 185.989 211.043 184.896C211.043 170.369 211.043 155.845 211.043 141.318C210.361 140.095 210.996 138.009 209.798 136.96C209.798 154.391 209.798 171.823 209.798 189.254C206.691 190.378 203.949 194.265 200.248 192.578C197.129 191.137 193.204 188.756 194.234 184.585C193.509 165.046 194.131 144.904 193.923 125.132C194.1 123.715 193.247 121.48 195.168 121.085C198.119 117.975 202.922 116.665 205.44 113.303C203.504 113.294 203.65 108.989 203.261 107.078C204.372 108.317 203.877 111.212 204.817 112.992C205.586 111.339 203.965 109.35 204.506 107.389C205.001 108.771 205.079 110.53 205.44 112.058C206.315 110.676 205.132 108.917 205.129 107.389C206.05 108.759 205.776 109.067 206.374 107.389C206.392 108.575 207.093 109.587 206.996 110.813C205.418 107.486 206.962 112.653 205.751 113.303C206.975 113.163 207.174 112.276 206.996 111.124C207.283 114.262 209.67 110.685 211.354 110.502C210.492 109.045 209.81 106.3 210.42 104.588C210.448 106.393 210.853 108.307 211.354 109.879C212.154 107.981 209.845 105.325 211.043 103.343C211.071 105.487 211.749 107.464 211.977 109.568C212.792 108.099 211.547 106.25 211.665 104.588C212.63 105.861 212.179 107.809 212.911 109.257C216.104 107.174 219.366 105.409 222.56 103.343C214.741 109.359 205.552 114.527 197.347 120.463C197.16 121.029 196.55 121.132 196.102 121.396C196.127 121.789 196.743 121.571 196.724 122.019C197.036 122.019 197.347 122.019 197.658 122.019C206.47 117.219 214.293 110.801 223.183 106.144C222.492 102.455 223.055 98.4431 222.871 94.6269C208.609 101.926 195.573 111.784 181.783 119.84C181.584 143.005 182.294 166.353 182.095 189.254C180.401 189.892 178.474 188.946 176.899 188.227C175.082 187.953 174.356 184.133 173.69 186.764C173.69 163.315 173.69 139.864 173.69 116.416C173.485 115.495 173.973 115.61 174.624 115.793C174.509 115.255 173.186 114.707 174.001 114.237C183.34 107.722 193.257 101.789 202.732 95.3428C205.434 93.1421 210.364 91.6885 211.665 89.024C211.528 89.4255 211.174 89.7119 210.732 89.6465C210.511 88.9586 211.012 88.5695 211.665 88.7127C211.712 88.3454 211.532 88.0715 211.354 87.7789C197.459 96.451 184.155 106.032 170.051 114.33C169.784 124.531 170.051 135.93 169.955 146.609Z" fill="#7D0013"/>
<path d="M146.609 183.651C146.569 183.33 146.245 183.156 145.987 183.028C145.305 182.067 145.853 180.488 145.676 179.293C145.676 175.144 145.676 170.991 145.676 166.842C145.884 156.103 145.262 144.953 145.987 134.47C145.987 126.688 145.987 118.906 145.987 111.124C146.395 103.719 145.165 95.7848 146.609 88.7127C145.778 88.7127 144.95 88.7127 144.119 88.7127C144.119 120.151 144.119 151.59 144.119 183.028C145.031 182.96 145.747 183.567 146.609 183.651Z" fill="#E4002B"/>
<path d="M208.241 88.7127C207.432 89.6621 206.215 90.266 205.129 90.8916C205.832 89.7679 207.202 89.4255 208.241 88.7127Z" fill="#F5F6F8"/>
<path d="M211.665 89.024C211.665 89.024 211.665 88.8684 211.665 88.7127C211.012 88.5695 210.511 88.9586 210.732 89.6465C211.174 89.7119 211.528 89.4255 211.665 89.024Z" fill="#E4002B"/>
<path d="M158.438 108.945C167.483 102.729 177.32 97.0735 186.764 91.2029C187.498 90.6457 188.301 89.8426 189.254 89.6465C189.005 90.4901 190.658 91.2216 189.876 91.8254C181.344 97.0642 172.9 102.692 164.352 108.012C164.24 108.79 163.001 108.787 163.107 109.568C165.687 110.819 168.604 114.072 171.511 111.747C179.299 107.364 186.81 102.306 194.545 97.7396C197.823 95.3864 201.667 93.441 204.817 90.8916C202.063 92.5445 199.168 94.1538 196.724 96.1833C194.455 93.9981 191.756 92.3608 189.901 89.9329C187.128 88.9151 184.613 92.8807 181.855 93.7647C179.259 95.4456 176.672 97.0922 174.026 98.6984C169.052 102.387 162.659 104.644 158.438 108.945Z" fill="#F5F6F8"/>
<path d="M186.764 91.2029C186.701 91.3274 186.739 91.6729 186.764 91.8254C187.271 92.1616 186.045 92.7375 186.452 93.3818C187.567 92.9709 188.88 91.5142 189.876 91.8254C190.658 91.2216 189.005 90.4901 189.254 89.6465C188.301 89.8426 187.498 90.6457 186.764 91.2029Z" fill="#E4002B"/>
<path d="M186.764 91.8254C178.428 97.4782 169.021 102.017 161.551 108.634C162.515 109.366 163.561 108.616 164.352 108.012C172.9 102.692 181.344 97.0642 189.876 91.8254C188.88 91.5142 187.567 92.9709 186.452 93.3818C186.045 92.7375 187.271 92.1616 186.764 91.8254Z" fill="#7D0013"/>
<path d="M174.001 114.237C173.186 114.707 174.509 115.255 174.624 115.793C173.973 115.61 173.485 115.495 173.69 116.416C174.979 116.307 174.898 117.194 175.558 116.105C177.264 117.767 179.461 119.27 181.783 119.84C195.573 111.784 208.609 101.926 222.871 94.6269C222.703 94.1102 222.074 93.9016 221.937 93.3818C221.937 93.3818 221.782 93.3974 221.626 93.3818C220.689 93.1919 219.696 92.5881 219.136 91.8254C219.136 91.8254 218.937 91.897 218.825 91.8254C217.471 90.8823 216.693 93.2978 217.891 94.0044C206.495 101.705 194.813 108.917 183.262 116.338C180.093 119.401 177.096 115.012 174.001 114.237Z" fill="#E4002B"/>
<path d="M219.136 91.8254C220.004 92.2737 220.991 92.6783 221.626 93.3818C220.689 93.1919 219.696 92.5881 219.136 91.8254Z" fill="#F5F6F8"/>
<path d="M222.871 94.6269C223.055 98.4431 222.492 102.455 223.183 106.144C214.293 110.801 206.47 117.219 197.658 122.019C201.73 126.66 208.378 123.432 212.366 119.918C216.652 116.951 221.38 114.446 225.361 111.124C224.07 111.482 221.209 114.866 221.386 111.819C222.149 110.219 224.004 108.622 223.556 106.844C222.102 102.929 224.848 96.5599 221.937 93.3818C222.074 93.9016 222.703 94.1102 222.871 94.6269Z" fill="#F5F6F8"/>
<path d="M220.381 103.654C219.805 101.696 219.357 98.8042 220.07 96.8058C219.833 99.1746 220.478 101.316 220.381 103.654Z" fill="#E4002B"/>
<path d="M221.004 102.409C220.499 100.98 220.474 98.524 221.004 97.1171C221.004 98.882 221.004 100.644 221.004 102.409Z" fill="#E4002B"/>
<path d="M171.511 111.747C172.249 112.861 173.454 110.278 174.001 111.747C176.317 108.525 180.971 107.078 184.202 104.516C187.607 102.178 191.514 100.575 194.545 97.7396C186.81 102.306 179.299 107.364 171.511 111.747Z" fill="#E4002B"/>
<path d="M220.07 104.588C218.411 103.451 218.7 99.6259 219.136 97.7396C219.245 100.071 219.186 102.462 220.07 104.588Z" fill="#E4002B"/>
<path d="M218.825 104.899C218.028 102.997 217.91 100.024 218.513 98.0509C218.302 100.339 218.756 103.025 218.825 104.899Z" fill="#E4002B"/>
<path d="M217.58 102.097C217.094 101.285 217.044 99.4641 217.58 98.6735C217.58 99.8158 217.58 100.955 217.58 102.097Z" fill="#E4002B"/>
<path d="M216.023 105.833C214.545 104.42 214.504 101.403 215.089 99.6073C214.872 101.824 215.354 103.841 216.023 105.833Z" fill="#E4002B"/>
<path d="M217.268 104.588C216.531 103.604 216.11 101.609 216.646 100.541C216.714 101.923 217.11 103.218 217.268 104.588Z" fill="#E4002B"/>
<path d="M212.911 105.833C212.114 104.768 211.999 102.62 212.599 101.475C212.453 102.997 212.752 104.385 212.911 105.833Z" fill="#E4002B"/>
<path d="M216.335 104.899C216.005 104.227 215.282 102.773 216.023 102.097C215.896 103.087 216.549 103.878 216.335 104.899Z" fill="#E4002B"/>
<path d="M214.156 107.389C213.225 106.356 212.935 103.978 213.533 102.72C213.452 104.351 213.838 105.851 214.156 107.389Z" fill="#E4002B"/>
<path d="M210.42 110.502C209.518 108.482 208.743 105.515 209.487 103.343C209.318 105.848 210.227 108.077 210.42 110.502Z" fill="#E4002B"/>
<path d="M195.168 121.085C195.417 121.126 195.514 121.424 195.791 121.396C196.31 121.051 196.765 120.68 197.347 120.463C205.552 114.527 214.741 109.359 222.56 103.343C219.366 105.409 216.104 107.174 212.911 109.257C212.179 107.809 212.63 105.861 211.665 104.588C211.547 106.25 212.792 108.099 211.977 109.568C211.749 107.464 211.071 105.487 211.043 103.343C209.845 105.325 212.154 107.981 211.354 109.879C210.853 108.307 210.448 106.393 210.42 104.588C209.81 106.3 210.492 109.045 211.354 110.502C209.67 110.685 207.283 114.262 206.996 111.124C207.174 112.276 206.975 113.163 205.751 113.303C206.962 112.653 205.418 107.486 206.996 110.813C207.093 109.587 206.392 108.575 206.374 107.389C205.776 109.067 206.05 108.759 205.129 107.389C205.132 108.917 206.315 110.676 205.44 112.058C205.079 110.53 205.001 108.771 204.506 107.389C203.965 109.35 205.586 111.339 204.817 112.992C203.877 111.212 204.372 108.317 203.261 107.078C203.65 108.989 203.504 113.294 205.44 113.303C202.922 116.665 198.119 117.975 195.168 121.085Z" fill="#E4002B"/>
<path d="M214.467 103.343C214.859 105.621 213.552 104.896 214.467 103.343Z" fill="#E4002B"/>
<path d="M207.93 111.747C207.413 109.493 206.178 106.81 206.996 104.588C206.645 107.065 208.26 109.655 207.93 111.747Z" fill="#7D0013"/>
<path d="M207.93 104.588C207.18 106.608 207.968 110.022 209.175 111.436C209.567 110.608 207.896 109.31 208.864 108.323C209.069 109.023 208.886 110.471 209.798 110.502C209.119 108.603 208.768 106.608 208.553 104.588C207.871 105.117 208.416 106.293 208.241 107.078C207.56 106.549 208.104 105.372 207.93 104.588Z" fill="#7D0013"/>
<path d="M225.984 110.813C225.707 110.785 225.61 111.084 225.361 111.124C221.38 114.446 216.652 116.951 212.366 119.918C208.378 123.432 201.73 126.66 197.658 122.019C197.347 122.019 197.036 122.019 196.724 122.019C196.326 122.103 195.878 121.779 195.791 121.396C195.514 121.424 195.417 121.126 195.168 121.085C193.247 121.48 194.1 123.715 193.923 125.132C194.648 144.667 194.026 164.813 194.234 184.585C193.204 188.756 197.129 191.137 200.248 192.578C203.949 194.265 206.691 190.378 209.798 189.254C209.798 171.823 209.798 154.391 209.798 136.96C209.595 132.733 210.206 128.288 209.487 124.198C210.822 123.619 211.908 122.526 213.222 122.019C213.104 125.253 212.559 128.388 212.599 131.668C211.862 128.876 212.795 125.583 212.911 122.641C211.79 123.37 212.518 125.312 211.665 123.264C211.665 124.718 211.665 126.168 211.665 127.622C210.978 126.557 211.535 124.876 211.354 123.575C210.598 129.166 212.114 135.553 211.043 141.318C211.043 155.845 211.043 170.369 211.043 184.896C211.759 185.251 211.675 186.132 212.288 185.207C213.726 186.58 212.69 187.271 211.354 186.141C212.456 187.532 213.788 188.989 215.401 189.254C213.499 189.982 216.565 190.739 217.58 190.81C215.728 191.912 213.237 189.207 211.354 188.32C213.269 190.832 216.509 191.853 219.447 192.367C219.161 191.109 219.622 189.736 219.447 188.32C218.719 185.674 219.51 181.59 218.641 179.682C219.886 176.996 218.638 174.708 216.646 172.756C217.748 172.825 218.18 174.232 219.136 174.624C219.024 173.121 216.867 172.831 216.646 171.511C217.259 172.047 218.187 172.249 218.513 173.068C219.566 172.333 218.828 170.867 219.136 169.644C218.753 168.156 216.702 169.519 216.646 167.776C219.052 169.395 216.307 165.659 215.089 165.597C217.633 165.547 214.289 164.442 214.156 163.107C216.101 164.981 217.359 164.999 219.136 166.531C220.82 160.495 216.462 157.383 213.222 153.457C214.993 153.174 215.404 154.357 216.957 154.391C216.275 152.732 216.095 151.87 214.467 150.345C215.706 150.939 218.327 152.953 216.957 153.769C217.857 154.298 218.38 155.039 219.136 155.636C218.881 153.787 219.74 151.559 218.513 150.033C217.206 151.322 215.958 148.128 214.778 147.543C216.138 147.357 216.487 148.972 217.268 149.722C217.869 148.829 217.947 149.031 219.136 150.033C219.136 145.364 219.136 140.695 219.136 136.026C219.687 135.961 220.185 136.506 220.381 136.96C222.812 141.421 221.128 147.16 221.626 152.212C221.626 163.21 221.626 174.21 221.626 185.207C220.098 190.256 224.733 194.206 229.408 193.923C229.268 179.508 229.732 164.947 229.097 150.656C230.304 146.89 226.314 139.715 231.587 139.139C233.128 138.442 234.447 137.414 235.945 136.649C236.461 136.163 237.121 135.693 237.812 135.404C239.322 134.613 240.651 133.555 242.17 132.913C243.188 132.036 244.393 131.127 245.594 130.423C245.731 130.373 245.905 130.423 245.905 130.423C248.912 128.257 252.178 126.461 255.244 124.509C255.698 123.687 256.769 123.585 257.423 122.953C256.386 121.331 254.867 123.703 253.687 123.887C253.08 124.254 252.573 124.814 251.82 124.82C249.731 127.161 246.494 128.191 244.349 130.423C241.196 132.499 237.486 135.531 234.077 136.337C231.378 138.775 226.747 139.351 224.739 136.026C232.34 130.738 240.726 126.131 248.084 120.463C248.112 119.719 247.776 118.545 246.839 118.595C246.242 119.445 245.081 119.691 244.349 120.463C241.691 122.324 238.731 123.603 236.256 125.754C232.844 127.886 229.61 130.146 226.08 132.076C222.937 134.647 218.352 137.411 215.089 133.536C214.377 133.299 213.592 133.284 212.911 132.913C218.433 129.785 223.674 125.801 229.097 122.33C229.196 119.986 229.025 117.107 229.097 114.548C230.012 116.391 228.801 119.264 229.719 121.085C231.322 118.134 230.426 114.464 230.653 111.124C229.965 112.189 230.522 113.87 230.342 115.171C229.448 113.916 230.939 111.149 228.785 111.436C229.95 111.134 230.837 110.141 231.898 109.568C230.513 109.21 229.651 107.788 228.474 107.078C227.873 107.243 227.466 106.751 226.918 106.767C226.678 108.282 227.911 110.06 225.984 110.813Z" fill="#B4A9A8"/>
<path d="M204.195 114.237C202.903 112.625 202.243 109.668 202.95 107.7C202.744 110.038 203.653 112.086 204.195 114.237Z" fill="#E4002B"/>
<path d="M203.572 114.548C202.119 113.281 201.306 109.963 202.016 108.012C202.128 110.299 202.611 112.497 203.572 114.548Z" fill="#7D0013"/>
<path d="M200.148 109.257C198.981 110.975 201.646 113.213 200.771 114.86C200.696 114.088 200.229 113.44 200.148 112.681C199.436 114.004 200.765 115.52 202.016 115.793C201.437 113.602 200.245 111.585 200.148 109.257Z" fill="#E4002B"/>
<path d="M202.327 115.171C202.128 113.313 200.186 111.345 201.082 109.568C200.811 111.554 202.987 113.462 202.327 115.171Z" fill="#7D0013"/>
<path d="M229.097 122.33C229.89 121.717 230.796 121.378 231.587 120.774C232.804 117.571 231.964 113.263 232.209 109.568C232.209 109.568 232.01 109.5 231.898 109.568C230.837 110.141 229.95 111.134 228.785 111.436C230.939 111.149 229.448 113.916 230.342 115.171C230.522 113.87 229.965 112.189 230.653 111.124C230.426 114.464 231.322 118.134 229.719 121.085C228.801 119.264 230.012 116.391 229.097 114.548C229.025 117.107 229.196 119.986 229.097 122.33Z" fill="#655C5C"/>
<path d="M197.969 110.502C197.005 111.713 198.371 113.278 198.592 114.548C197.527 114.134 197.873 112.634 197.036 112.058C195.924 113.325 197.247 115.713 198.281 117.35C198.246 115.884 197.067 114.76 197.036 113.303C197.87 114.197 198.166 115.585 198.592 116.727C199.529 116.351 197.994 115.246 198.903 114.86C198.881 115.666 199.722 116.192 199.526 117.039C200.264 114.972 197.531 112.883 197.969 110.502Z" fill="#7D0013"/>
<path d="M197.036 117.661C196.836 115.803 194.894 113.836 195.791 112.058C195.52 114.044 197.696 115.952 197.036 117.661Z" fill="#7D0013"/>
<path d="M194.234 112.992C193.444 115.043 194.237 114.495 192.989 113.303C193.241 114.819 193.528 116.5 194.545 117.661C194.735 116.705 193.736 116.117 193.923 115.171C194.885 116.049 195.149 117.652 195.479 118.906C196.192 118.003 194.29 114.52 196.102 117.039C195.927 115.741 195.464 114.368 194.857 113.303C194.545 114.053 195.408 115.018 194.857 115.482C194.514 114.688 194.321 113.848 194.234 112.992Z" fill="#7D0013"/>
<path d="M234.7 119.529C234.7 119.529 234.7 119.684 234.7 119.84C234.777 119.918 235.011 119.84 235.011 119.84C234.363 118.1 235.117 115.846 234.388 114.237C234.485 115.999 234.13 117.888 234.7 119.529Z" fill="#F5F6F8"/>
<path d="M322.79 115.171C323.235 115.492 323.316 116.74 322.79 117.039C322.79 116.416 322.79 115.793 322.79 115.171Z" fill="#F5F6F8"/>
<path d="M173.69 116.416C173.69 139.864 173.69 163.315 173.69 186.764C174.356 184.133 175.082 187.953 176.899 188.227C178.474 188.946 180.401 189.892 182.095 189.254C182.294 166.353 181.584 143.005 181.783 119.84C179.461 119.27 177.264 117.767 175.558 116.105C174.898 117.194 174.979 116.307 173.69 116.416Z" fill="#E4002B"/>
<path d="M191.744 117.039C193.17 118.822 191.081 118.433 191.744 117.039Z" fill="#7D0013"/>
<path d="M244.349 120.151C244.277 120.201 244.349 120.463 244.349 120.463C245.081 119.691 246.242 119.445 246.839 118.595C247.776 118.545 248.112 119.719 248.084 120.463C248.67 120.612 248.162 121.371 247.773 121.396C248.94 122.243 250.07 123.491 251.82 123.887C251.988 123.37 252.616 123.161 252.753 122.641C252.993 123.13 253.756 123.199 253.687 123.887C254.867 123.703 256.386 121.331 257.423 122.953C257.874 123.504 257.6 124.266 258.045 124.82C257.307 125.122 256.679 125.676 255.866 125.754C254.78 126.741 253.317 127.32 252.131 128.244C245.759 132.31 239.397 136.571 233.143 140.695C236.766 141.312 240.651 144.278 243.944 141.224C250.061 137.467 256.398 133.81 262.092 129.489C258.422 129.869 261.438 123.871 263.648 126.999C269.251 128.381 266.947 135.808 268.628 140.073C268.725 139.998 269.111 140.119 269.251 140.073C269.425 139.677 270.138 139.684 270.185 139.139C269.761 139.344 269.357 139.534 268.94 139.761C268.849 137.131 267.704 134.23 267.695 131.357C268.217 125.194 259.477 127.301 257.709 122.666C256.423 119.971 252.573 121.076 251.508 123.264C248.959 122.754 248.511 120.35 247.773 118.284C246.351 118.243 245.404 119.354 244.349 120.151Z" fill="#F5F6F8"/>
<path d="M231.587 120.774C230.796 121.378 229.89 121.717 229.097 122.33C223.674 125.801 218.433 129.785 212.911 132.913C213.592 133.284 214.377 133.299 215.089 133.536C220.91 130.177 226.345 126.221 232.209 122.953C232.882 122.274 233.813 121.813 234.7 121.396C234.88 121.135 235.232 120.584 234.7 120.463C234.818 121.079 234.23 121.172 233.766 121.085C234.242 119.921 233.781 120.145 233.143 119.529C232.888 120.204 232.069 120.291 231.587 120.774Z" fill="#655C5C"/>
<path d="M322.79 119.529C323.257 120.039 323.325 121.53 322.79 122.019C322.79 121.188 322.79 120.36 322.79 119.529Z" fill="#F5F6F8"/>
<path d="M234.7 120.463C235.232 120.584 234.88 121.135 234.7 121.396C234.833 121.343 235.011 121.396 235.011 121.396C235.322 120.914 235.45 120.31 235.011 119.84C235.011 119.84 234.777 119.918 234.7 119.84C234.7 119.996 234.656 120.319 234.7 120.463Z" fill="#E4002B"/>
<path d="M235.011 121.396C235.011 121.396 234.833 121.343 234.7 121.396C233.813 121.813 232.882 122.274 232.209 122.953C233.352 123.992 235.207 124.512 236.256 125.754C238.731 123.603 241.691 122.324 244.349 120.463C244.349 120.463 244.277 120.201 244.349 120.151C242.93 120.889 241.635 121.832 240.222 122.561C238.619 123.896 237.299 120.961 235.633 122.019C236.374 123.239 237.065 123.224 236.256 124.82C235.266 124.68 234.693 123.774 233.766 123.575C233.392 122.299 234.871 122.206 235.011 121.396Z" fill="#F5F6F8"/>
<path d="M195.791 121.396C195.878 121.779 196.326 122.103 196.724 122.019C196.743 121.571 196.127 121.789 196.102 121.396C196.55 121.132 197.16 121.029 197.347 120.463C196.765 120.68 196.31 121.051 195.791 121.396Z" fill="#E4002B"/>
<path d="M224.739 136.026C232.67 131.69 240.166 126.383 247.773 121.396C248.162 121.371 248.67 120.612 248.084 120.463C240.726 126.131 232.34 130.738 224.739 136.026Z" fill="#655C5C"/>
<path d="M224.739 136.026C226.747 139.351 231.378 138.775 234.077 136.337C237.594 134.52 240.847 132.17 244.349 130.423C246.494 128.191 249.731 127.161 251.82 124.82C251.589 124.232 252.99 123.949 251.82 123.887C250.07 123.491 248.94 122.243 247.773 121.396C240.166 126.383 232.67 131.69 224.739 136.026Z" fill="#F5F6F8"/>
<path d="M209.798 136.96C210.996 138.009 210.361 140.095 211.043 141.318C212.114 135.553 210.598 129.166 211.354 123.575C211.535 124.876 210.978 126.557 211.665 127.622C211.665 126.168 211.665 124.718 211.665 123.264C212.518 125.312 211.79 123.37 212.911 122.641C212.795 125.583 211.862 128.876 212.599 131.668C212.559 128.388 213.104 125.253 213.222 122.019C211.908 122.526 210.822 123.619 209.487 124.198C210.206 128.288 209.595 132.733 209.798 136.96Z" fill="#655C5C"/>
<path d="M251.82 123.887C252.99 123.949 251.589 124.232 251.82 124.82C252.573 124.814 253.08 124.254 253.687 123.887C253.756 123.199 252.993 123.13 252.753 122.641C252.616 123.161 251.988 123.37 251.82 123.887Z" fill="#F5F6F8"/>
<path d="M215.089 133.536C218.352 137.411 222.937 134.647 226.08 132.076C229.61 130.146 232.844 127.886 236.256 125.754C235.207 124.512 233.352 123.992 232.209 122.953C226.345 126.221 220.91 130.177 215.089 133.536Z" fill="#F5F6F8"/>
<path d="M255.244 124.509C255.128 125.048 253.806 125.595 254.621 126.065C254.976 125.776 255.415 125.729 255.866 125.754C256.679 125.676 257.307 125.122 258.045 124.82C257.6 124.266 257.874 123.504 257.423 122.953C256.769 123.585 255.698 123.687 255.244 124.509Z" fill="#655C5C"/>
<path d="M219.759 127.622C219.264 126.501 219.226 124.363 219.759 123.264C219.759 124.718 219.759 126.168 219.759 127.622Z" fill="#655C5C"/>
<path d="M245.905 130.423C246.192 131.015 246.621 129.798 247.151 130.112C249.171 128.111 252.268 127.41 254.621 126.065C253.806 125.595 255.128 125.048 255.244 124.509C252.178 126.461 248.912 128.257 245.905 130.423Z" fill="#E4002B"/>
<path d="M193.923 125.132C194.648 144.667 194.026 164.813 194.234 184.585C193.509 165.046 194.131 144.904 193.923 125.132Z" fill="#E4002B"/>
<path d="M254.621 126.065C252.268 127.41 249.171 128.111 247.151 130.112C249.037 130.411 250.522 127.659 252.131 128.244C253.317 127.32 254.78 126.741 255.866 125.754C255.415 125.729 254.976 125.776 254.621 126.065Z" fill="#B4A9A8"/>
<path d="M262.092 129.489C262.814 130.383 259.215 131.989 258.123 132.991C252.676 136.518 247.203 140.004 241.548 143.185C245.448 142.684 249.077 138.619 252.971 136.867C256.367 133.944 261.282 132.78 263.959 129.178C264.812 130.072 265.114 129.1 266.138 128.867C265.668 127.824 264.106 128.045 263.648 126.999C261.438 123.871 258.422 129.869 262.092 129.489Z" fill="#B4A9A8"/>
<path d="M166.842 126.688C166.497 128.092 165.183 126.445 165.908 128.244C165.261 127.874 164.794 127.211 164.041 126.999C164.324 128.313 166.528 128.54 166.842 129.801C165.768 129.524 165.074 128.503 164.041 128.244C165.258 129.922 167.406 130.464 169.021 131.668C168.943 130.787 167.807 130.566 167.153 130.112C168.283 129.527 166.92 128.861 166.22 128.556C166.811 128.111 167.876 128.811 166.842 127.622C167.732 127.544 168.187 128.54 169.021 128.556C168.691 127.488 167.269 127.625 166.842 126.688Z" fill="#E4002B"/>
<path d="M262.092 129.489C256.398 133.81 250.061 137.467 243.944 141.224C240.651 144.278 236.766 141.312 233.143 140.695C239.397 136.571 245.759 132.31 252.131 128.244C250.522 127.659 249.037 130.411 247.151 130.112C246.621 129.798 246.192 131.015 245.905 130.423C245.905 130.423 245.731 130.373 245.594 130.423C244.81 131.693 243.412 132.263 242.17 132.913C240.651 133.555 239.322 134.613 237.812 135.404C237.398 136.004 236.67 136.518 235.945 136.649C234.447 137.414 233.128 138.442 231.587 139.139C230.398 144.182 233.296 149.716 234.32 154.771C236.723 165.438 239.132 176.096 241.548 186.764C243.001 188.927 243.182 193.098 245.242 194.882C246.54 196.749 250.469 197.197 252.753 198.281C253.665 198.673 254.602 198.981 255.555 199.215C256.697 199.215 257.837 199.215 258.979 199.215C259.197 198.374 258.73 197.4 257.734 197.658C259.81 195.392 258.12 190.645 258.668 187.386C258.798 176.084 258.359 164.638 258.979 153.457C258.935 150.329 258.247 146.102 261.998 144.96C263.925 142.809 266.751 142.062 268.628 140.073C266.947 135.808 269.251 128.381 263.648 126.999C264.106 128.045 265.668 127.824 266.138 128.867C265.114 129.1 264.812 130.072 263.959 129.178C261.282 132.78 256.367 133.944 252.971 136.867C249.077 138.619 245.448 142.684 241.548 143.185C247.203 140.004 252.676 136.518 258.123 132.991C259.215 131.989 262.814 130.383 262.092 129.489Z" fill="#655C5C"/>
<path d="M281.391 131.98C282.477 131.538 283.398 129.726 284.503 131.046C284.145 129.035 282.01 131.155 281.391 131.98Z" fill="#F5F6F8"/>
<path d="M244.349 130.423C241.196 132.499 237.486 135.531 234.077 136.337C237.594 134.52 240.847 132.17 244.349 130.423Z" fill="#655C5C"/>
<path d="M245.594 130.423C244.81 131.693 243.412 132.263 242.17 132.913C243.188 132.036 244.393 131.127 245.594 130.423Z" fill="#655C5C"/>
<path d="M281.391 131.98C281.391 131.98 281.216 131.93 281.079 131.98C280.79 132.655 280.13 132.948 279.523 133.225C279.523 133.225 279.324 133.156 279.212 133.225C277.347 135.31 274.692 136.431 272.364 137.894C271.439 137.891 270.913 138.694 270.185 139.139C270.138 139.684 269.425 139.677 269.251 140.073C269.21 140.322 268.912 140.418 268.94 140.695C269.008 141.206 269.326 140.611 269.562 140.695C274.418 137.617 279.377 134.563 283.881 131.046C284.357 131.276 284.089 132.219 284.815 132.291C284.774 132.042 284.475 131.945 284.503 131.668C284.475 131.519 284.519 131.201 284.503 131.046C283.398 129.726 282.477 131.538 281.391 131.98Z" fill="#E4002B"/>
<path d="M269.562 140.695C266.776 142.877 263.639 144.813 260.535 146.609C262.674 144.188 266.281 142.812 268.94 140.695C268.912 140.418 269.21 140.322 269.251 140.073C269.111 140.119 268.725 139.998 268.628 140.073C266.751 142.062 263.925 142.809 261.998 144.96C258.247 146.102 258.935 150.329 258.979 153.457C258.359 164.638 258.798 176.084 258.668 187.386C258.12 190.645 259.81 195.392 257.734 197.658C258.73 197.4 259.197 198.374 258.979 199.215C257.837 199.215 256.697 199.215 255.555 199.215C261.572 198.825 265.503 206.414 272.052 203.884C274.129 203.454 277.182 199.457 278.9 201.705C279.361 199.7 282.959 200.706 283.846 198.869C286.866 196.634 291.6 195.579 293.53 192.678C294.554 193.736 296.945 191.262 297.567 190.178C298.464 188.896 299.167 187.259 300.689 186.764C299.329 185.982 301.337 185.643 299.133 185.519C299.899 185.313 300.914 185.036 301.312 184.273C300.521 184.273 299.986 185.083 299.133 184.896C300.966 183.785 299.575 184.236 298.511 183.962C299.061 183.477 299.952 183.554 300.378 183.028C298.504 183.212 299.771 182.484 300.378 181.783C299.491 181.743 298.019 183.007 299.133 181.472C297.412 182.02 298.392 181.307 299.133 180.538C297.325 180.905 296.655 179.8 295.087 181.472C295.731 179.813 297.795 179.561 299.133 178.671C297.415 178.001 299.5 178.328 299.444 177.114C297.732 178.011 295.98 178.957 294.153 179.604C294.925 178.44 296.683 178.409 297.577 177.425C296.148 176.713 295.647 178.636 294.153 178.671C294.623 177.674 294.386 176.697 296.332 176.803C295.989 175.797 295.136 176.759 294.775 175.869C293.801 176.376 295.245 176.766 293.841 177.114C293.633 176.781 293.617 176.059 293.219 175.558C292.553 176.545 293.602 178.017 293.219 179.293C292.441 178.879 293.396 177.506 292.596 177.114C291.364 181.011 293.751 187.797 289.172 189.876C289.502 188.943 290.726 188.939 291.04 188.009C289.652 188.034 289.032 189.646 287.902 190.163C287.323 191.031 284.488 191.423 285.748 192.367C282.573 192.214 279.996 197.755 277.655 196.413C276.214 198.022 274.004 198.701 272.052 199.526C272.027 191.607 272.027 183.508 272.052 175.558C271.682 167.77 272.818 158.942 271.43 151.901C273.867 150.295 276.992 148.754 279.212 146.609C276.426 147.889 274.004 150.018 271.215 151.375C266.708 152.62 269.307 158.332 268.628 161.862C268.628 174.833 268.628 187.8 268.628 200.771C269.366 205.375 263.138 201.798 262.163 199.454C261.995 186.518 262.138 173.563 262.092 160.617C262.422 156.673 261.5 151.811 262.403 148.477C267.271 144.596 272.697 141.302 277.873 137.8C279.809 135.665 284.525 135.117 284.815 132.291C284.089 132.219 284.357 131.276 283.881 131.046C279.377 134.563 274.418 137.617 269.562 140.695Z" fill="#7D0013"/>
<path d="M284.815 132.291C284.525 135.117 279.809 135.665 277.873 137.8C272.697 141.302 267.271 144.596 262.403 148.477C265.071 151.188 269.232 151.652 271.959 148.695C277.789 144.876 283.728 141.237 289.484 137.271C287.056 133.813 292.696 134.663 293.53 136.96C293.577 137.1 293.53 137.427 293.53 137.583C293.636 137.654 293.841 137.583 293.841 137.583C293.829 135.531 291.052 134.348 289.182 134.46C287.619 133.636 286.203 132.254 284.503 131.668C284.475 131.945 284.774 132.042 284.815 132.291Z" fill="#F5F6F8"/>
<path d="M281.079 131.98C280.79 132.655 280.13 132.948 279.523 133.225C279.812 132.549 280.472 132.257 281.079 131.98Z" fill="#F5F6F8"/>
<path d="M279.212 133.225C277.347 135.31 274.692 136.431 272.364 137.894C274.34 136.001 277.076 135.008 279.212 133.225Z" fill="#F5F6F8"/>
<path d="M145.987 134.47C145.778 145.209 146.401 156.359 145.676 166.842C145.884 156.103 145.262 144.953 145.987 134.47Z" fill="#E4002B"/>
<path d="M262.403 148.477C261.5 151.811 262.422 156.673 262.092 160.617C262.138 173.563 261.995 186.518 262.163 199.454C263.138 201.798 269.366 205.375 268.628 200.771C268.628 187.8 268.628 174.833 268.628 161.862C269.307 158.332 266.708 152.62 271.215 151.375C274.004 150.018 276.426 147.889 279.212 146.609C283.756 143.238 289.172 140.537 293.53 136.96C292.696 134.663 287.056 133.813 289.484 137.271C283.728 141.237 277.789 144.876 271.959 148.695C269.232 151.652 265.071 151.188 262.403 148.477Z" fill="#E4002B"/>
<path d="M237.812 135.404C237.398 136.004 236.67 136.518 235.945 136.649C236.461 136.163 237.121 135.693 237.812 135.404Z" fill="#7D0013"/>
<path d="M219.447 188.32C219.447 170.991 219.447 153.666 219.447 136.337C219.849 136.39 219.992 136.867 220.381 136.96C220.185 136.506 219.687 135.961 219.136 136.026C219.136 140.695 219.136 145.364 219.136 150.033C217.947 149.031 217.869 148.829 217.268 149.722C216.487 148.972 216.138 147.357 214.778 147.543C215.958 148.128 217.206 151.322 218.513 150.033C219.74 151.559 218.881 153.787 219.136 155.636C218.38 155.039 217.857 154.298 216.957 153.769C218.327 152.953 215.706 150.939 214.467 150.345C216.095 151.87 216.275 152.732 216.957 154.391C215.404 154.357 214.993 153.174 213.222 153.457C216.462 157.383 220.82 160.495 219.136 166.531C217.359 164.999 216.101 164.981 214.156 163.107C214.289 164.442 217.633 165.547 215.089 165.597C216.307 165.659 219.052 169.395 216.646 167.776C216.702 169.519 218.753 168.156 219.136 169.644C218.828 170.867 219.566 172.333 218.513 173.068C218.187 172.249 217.259 172.047 216.646 171.511C216.867 172.831 219.024 173.121 219.136 174.624C218.18 174.232 217.748 172.825 216.646 172.756C218.638 174.708 219.886 176.996 218.641 179.682C219.51 181.59 218.719 185.674 219.447 188.32Z" fill="#B4A9A8"/>
<path d="M279.212 146.609C276.992 148.754 273.867 150.295 271.43 151.901C272.818 158.942 271.682 167.77 272.052 175.558C272.027 183.508 272.027 191.607 272.052 199.526C274.004 198.701 276.214 198.022 277.655 196.413C279.996 197.755 282.573 192.214 285.748 192.367C284.488 191.423 287.323 191.031 287.902 190.163C289.032 189.646 289.652 188.034 291.04 188.009C290.726 188.939 289.502 188.943 289.172 189.876C293.751 187.797 291.364 181.011 292.596 177.114C293.396 177.506 292.441 178.879 293.219 179.293C293.602 178.017 292.553 176.545 293.219 175.558C293.617 176.059 293.633 176.781 293.841 177.114C295.245 176.766 293.801 176.376 294.775 175.869C295.136 176.759 295.989 175.797 296.332 176.803C294.386 176.697 294.623 177.674 294.153 178.671C295.647 178.636 296.148 176.713 297.577 177.425C296.683 178.409 294.925 178.44 294.153 179.604C295.98 178.957 297.732 178.011 299.444 177.114C299.5 178.328 297.415 178.001 299.133 178.671C297.795 179.561 295.731 179.813 295.087 181.472C296.655 179.8 297.325 180.905 299.133 180.538C298.392 181.307 297.412 182.02 299.133 181.472C298.019 183.007 299.491 181.743 300.378 181.783C299.771 182.484 298.504 183.212 300.378 183.028C299.952 183.554 299.061 183.477 298.511 183.962C299.575 184.236 300.966 183.785 299.133 184.896C299.986 185.083 300.521 184.273 301.312 184.273C300.914 185.036 299.899 185.313 299.133 185.519C301.337 185.643 299.329 185.982 300.689 186.764C299.167 187.259 298.464 188.896 297.567 190.178C296.945 191.262 294.554 193.736 293.53 192.678C291.6 195.579 286.866 196.634 283.846 198.869C282.959 200.706 279.361 199.7 278.9 201.705C277.182 199.457 274.129 203.454 272.052 203.884C275.003 204.257 278.119 202.937 280.768 203.572C278.558 204.895 275.884 205.888 273.92 207.619C288.422 199.159 302.903 191.153 317.498 182.717C316.897 182.698 316.057 183.458 315.631 182.717C311.83 181.055 308.166 178.615 305.047 175.869C305.047 175.869 304.87 175.922 304.736 175.869C302.252 174.736 300.322 172.719 297.888 171.511C291.594 169.255 293.901 162.123 293.53 156.881C293.53 150.447 293.53 144.017 293.53 137.583C293.53 137.427 293.577 137.1 293.53 136.96C289.172 140.537 283.756 143.238 279.212 146.609Z" fill="#E4002B"/>
<path d="M297.888 171.511C297.795 171.122 297.318 170.979 297.265 170.577C296.185 169.827 295.124 168.931 294.153 168.087C293.427 158.304 294.05 147.911 293.841 137.894C293.841 137.894 293.817 137.735 293.841 137.583C293.841 137.583 293.636 137.654 293.53 137.583C293.53 144.017 293.53 150.447 293.53 156.881C293.901 162.123 291.594 169.255 297.888 171.511Z" fill="#E4002B"/>
<path d="M293.841 137.894C294.567 147.677 293.947 158.071 294.153 168.087C293.427 158.304 294.05 147.911 293.841 137.894Z" fill="#F5F6F8"/>
<path d="M229.408 193.923C233.682 191.999 237.71 189.484 241.548 186.764C239.132 176.096 236.723 165.438 234.32 154.771C233.296 149.716 230.398 144.182 231.587 139.139C226.314 139.715 230.304 146.89 229.097 150.656C229.732 164.947 229.268 179.508 229.408 193.923Z" fill="#655C5C"/>
<path d="M269.562 140.695C269.326 140.611 269.008 141.206 268.94 140.695C266.281 142.812 262.674 144.188 260.535 146.609C263.639 144.813 266.776 142.877 269.562 140.695Z" fill="#E4002B"/>
<path d="M237.501 143.185C235.587 142.694 233.756 141.937 231.898 141.318C232.645 142.448 232.627 141.779 231.898 142.874C232.303 143.824 232.91 144.695 233.766 145.364C231.827 144.732 233.61 147.469 233.476 148.455C233.887 149.809 234.043 151.241 234.7 152.524C234.818 151.571 237.464 152.732 236.256 151.59C237.031 151.683 238.055 151.745 238.435 152.524C237.286 152.209 236.664 152.714 235.633 152.835C236.272 153.383 237.763 153.087 237.812 154.08C237.146 153.909 236.166 153.099 235.633 153.769C237.059 153.962 238.217 154.992 239.68 155.014C237.999 156.449 242.864 157.031 239.991 155.636C241.66 155.49 242.513 157.305 244.038 157.504C242.846 158.145 244.617 158.559 245.283 158.749C245.031 158.058 243.951 158.036 244.972 157.504C244.253 157.143 243.478 157.031 242.793 156.57C243.25 155.801 244.004 157.062 244.66 156.881C243.938 155.179 244.691 152.589 242.481 152.212C244.542 151.823 240.829 150.239 243.415 150.967C243.502 148.938 240.464 151.145 240.925 148.477C239.503 149.679 237.115 147.64 235.011 147.232C235.876 145.872 236.654 147.023 237.501 145.676C236.138 145.287 234.799 144.863 233.455 144.431C236.032 144.322 239.104 146.002 241.859 146.609C240.741 147.543 238.973 145.24 237.812 146.298C239.254 146.778 240.748 147.023 242.17 147.543C240.847 148.051 238.992 146.865 237.501 146.609C238.952 147.512 241.09 148.776 242.793 148.477C242.964 147.164 241.738 146.401 242.17 145.364C240.773 145.103 239.391 144.785 238.13 144.113C236.402 143.783 235.419 143.307 237.501 143.185Z" fill="#B4A9A8"/>
<path d="M233.143 142.252C233.903 142.333 234.55 142.799 235.322 142.874C234.827 143.434 233.455 142.933 233.143 142.252Z" fill="#655C5C"/>
<path d="M169.955 171.2C169.955 163.004 169.955 154.805 169.955 146.609C169.644 146.609 169.332 146.609 169.021 146.609C169.824 147.512 169.32 147.587 168.399 147.232C168.554 147.988 169.834 147.848 169.644 148.788C169.015 148.262 166.805 147.372 168.087 146.609C166.49 145.753 165.118 144.399 163.418 143.808C163.77 144.885 165.473 144.904 165.597 145.987C162.923 145.15 162.584 144.125 160.305 142.874C160.872 143.982 162.201 144.546 162.484 145.676C160.984 145.028 160.411 142.989 158.749 142.563C159.235 145.442 164.769 146.426 165.286 149.411C166.027 150.012 166.357 149.149 166.842 149.1C165.799 147.895 163.767 147.136 163.107 145.676C164.567 146.099 166.238 146.469 167.153 147.855C166.313 147.855 165.855 146.843 164.975 146.921C166.229 148.107 167.788 149.159 169.332 150.033C168.651 151.039 169.479 151.447 167.776 150.656C168.15 151.767 170.344 151.97 169.644 153.769C166.048 151.599 162.531 149.19 159.06 146.921C158.432 147.674 160.906 149.872 158.749 148.477C159.169 149.772 160.554 149.865 158.749 150.033C159.649 150.317 160.256 151.238 161.239 151.279C160.402 150.606 160.352 150.012 161.239 149.722C162.319 151.058 163.96 152.057 165.597 152.524C165.183 151.571 163.767 151.733 163.418 150.656C165.177 151.328 166.683 152.608 168.399 153.457C167.941 154.226 167.188 152.966 166.531 153.146C167.206 154.426 169.273 154.195 169.332 155.948C167.627 154.871 166.123 153.504 164.352 152.524C165.379 154.553 168.632 155.179 169.644 157.193C167.978 155.966 166.008 155.064 164.663 153.457C163.664 153.952 163.826 154.74 162.484 154.08C163.225 153.333 163.424 153.594 162.095 152.601C160.872 151.559 160.853 152.396 161.862 153.146C160.76 153.137 160.156 151.917 159.06 151.901C159.652 152.991 161.227 153.047 161.862 154.08C160.461 155.032 160.389 152.844 159.06 152.835C159.281 153.557 160.389 153.847 160.305 154.703C159.764 154.634 159.235 153.28 158.749 154.08C158.936 155.089 160.343 156.738 161.862 157.815C161.871 156.829 160.645 156.489 160.305 155.636C162.512 157.426 165.519 158.911 167.465 160.617C165.952 160.34 165.015 158.737 163.418 158.749C163.888 159.58 165.482 159.611 165.597 160.617C163.574 159.736 161.815 158.313 159.994 157.193C160.47 158.425 162.238 158.78 162.484 159.994C161.23 159.465 160.474 157.977 159.06 157.815C161.7 160.626 165.55 162.108 168.087 164.663C165.364 163.866 163.129 160.193 160.617 160.928C160.038 160.467 159.418 159.835 158.749 159.372C159.06 160.667 158.335 162.413 160.305 162.796C159.035 163.253 160.844 164.66 158.749 163.418C158.874 164.561 161.143 166.008 160.928 164.352C162.431 166.114 164.716 167.608 166.842 168.71C166.12 167.664 164.763 167.306 165.908 166.531C165.252 166.126 164.128 165.796 164.041 164.975C165.227 165.796 169.223 167.729 166.22 167.465C167.241 168.262 168.579 168.237 169.644 169.021C167.683 168.971 169.728 169.718 168.71 170.577C169.133 170.783 169.538 170.973 169.955 171.2Z" fill="#E4002B"/>
<path d="M232.521 142.874C234.189 143.344 235.833 143.929 237.501 144.431C236.11 144.695 233.66 144.057 232.521 142.874Z" fill="#655C5C"/>
<path d="M238.124 143.808C238.774 143.061 239.78 144.175 240.614 144.119C239.963 144.866 238.958 143.752 238.124 143.808Z" fill="#B4A9A8"/>
<path d="M164.663 149.1C163.505 147.154 161.021 145.841 159.06 144.431C159.375 147.469 164.452 150.351 167.465 151.279C165.09 149.476 161.582 148.318 159.994 145.676C161.597 146.852 163.157 147.923 164.663 149.1Z" fill="#E4002B"/>
<path d="M233.766 147.855C235.089 148.474 236.399 149.065 237.812 149.411C236.71 149.834 234.335 148.932 233.766 147.855Z" fill="#655C5C"/>
<path d="M235.945 148.477C236.44 147.917 237.812 148.418 238.124 149.1C237.364 149.019 236.717 148.552 235.945 148.477Z" fill="#655C5C"/>
<path d="M234.388 150.033C235.898 150.964 238.522 150.637 239.369 152.212C237.875 151.086 235.556 151.565 234.388 150.033Z" fill="#655C5C"/>
<path d="M238.124 150.345C236.511 151.064 235.976 149.411 238.124 150.345Z" fill="#655C5C"/>
<path d="M211.354 150.345C212.31 151.002 212.696 152.054 211.977 152.835C211.012 152.209 211.731 151.201 211.354 150.345Z" fill="#B4A9A8"/>
<path d="M216.646 150.345C217.371 150.388 218.184 151.157 218.202 151.901C217.601 151.509 216.985 150.967 216.646 150.345Z" fill="#B4A9A8"/>
<path d="M238.435 150.656C240.203 151.646 241.071 149.949 242.17 151.901C240.934 151.132 239.549 152.128 238.435 150.656Z" fill="#655C5C"/>
<path d="M243.415 152.835C242.609 152.695 241.881 152.43 241.236 151.901C241.822 153.598 240.542 152.026 239.68 152.212C241.327 153.386 239.135 152.975 238.435 153.457C239.325 154.186 240.228 153.987 241.236 153.769C240.517 155.222 242.768 155.521 243.727 155.948C243.328 155.185 242.313 154.908 241.548 154.703C242.541 153.853 241.924 153.952 243.415 153.769C241.638 153.084 241.987 153.059 243.415 152.835Z" fill="#B4A9A8"/>
<path d="M217.891 156.881C216.328 156.545 215.815 154.861 214.467 154.08C215.516 155.699 217.085 158.335 219.136 158.127C217.838 156.483 219.341 156.094 217.58 154.703C216.798 155.225 217.057 155.26 216.023 154.703C216.571 155.966 217.608 155.503 217.891 156.881Z" fill="#B4A9A8"/>
<path d="M235.945 154.391C237.202 154.292 237.806 155.428 238.746 155.948C237.691 155.892 236.48 155.359 235.945 154.391Z" fill="#B4A9A8"/>
<path d="M236.567 155.636C237.358 156.078 238.173 156.399 239.057 156.57C238.466 157.109 236.648 156.548 236.567 155.636Z" fill="#B4A9A8"/>
<path d="M245.283 159.06C242.513 157.993 239.509 157.218 236.879 157.193C238.211 157.709 239.742 158.067 240.925 158.749C239.148 158.634 237.538 157.909 235.945 157.193C235.811 158.198 236.474 158.976 236.256 159.994C237.622 159.256 239.045 161.541 240.303 160.617C239.322 160.446 238.5 159.779 237.501 159.683C238.136 158.902 239.176 160.06 239.991 159.994C239.724 159.228 238.743 159.288 238.124 159.06C239.316 158.195 240.825 159.726 242.17 159.683C239.842 160.209 242.88 160.461 241.859 161.862C243.229 162.649 244.788 162.842 246.217 163.418C246.488 161.23 243.686 163.042 242.481 161.862C243.384 160.782 244.206 160.47 245.594 160.617C244.897 159.801 244.723 159.944 245.283 159.06Z" fill="#B4A9A8"/>
<path d="M236.879 160.305C238.774 160.987 240.486 162.101 242.481 162.484C240.853 162.777 237.847 161.815 236.879 160.305Z" fill="#B4A9A8"/>
<path d="M244.349 163.107C242.208 163.536 239.44 162.662 236.879 161.239C236.794 162.083 237.8 162.391 238.435 162.484C236.729 162.463 237.616 163.437 237.501 164.975C238.566 165.753 240.464 165.921 240.925 167.153C239.976 166.767 239.138 166.08 238.124 165.908C237.98 167.34 238.376 168.638 238.78 169.921C240.355 170.963 240.106 170.238 239.057 169.332C240.138 169.513 241.028 170.325 242.17 170.266C240.088 169.351 242.058 169.404 240.303 168.399C241.971 168.445 243.25 169.525 244.66 170.266C245.336 169.743 243.72 169.656 243.727 169.021C245.317 169.765 246.291 170.179 247.773 169.955C247.328 169.497 246.509 169.174 247.462 168.71C246.419 168.184 245.395 167.683 244.349 167.153C245.211 166.634 245.937 166.715 247.151 167.153C247.67 165.656 244.766 162.229 246.217 164.663C245.417 164.274 242.45 163.673 244.349 163.107Z" fill="#B4A9A8"/>
<path d="M244.972 161.862C243.695 162.553 243.163 160.875 244.972 161.862Z" fill="#B4A9A8"/>
<path d="M245.905 164.975C243.459 164.196 241.311 163.459 238.746 162.796C240.362 164.063 242.983 165.208 244.972 164.975C245.062 166.462 245.429 165.513 245.905 164.975Z" fill="#655C5C"/>
<path d="M225.673 163.418C226.364 163.403 226.915 164.131 227.229 164.663C226.538 164.679 225.987 163.95 225.673 163.418Z" fill="#B4A9A8"/>
<path d="M244.349 165.597C242.46 165.479 240.468 163.695 238.746 164.352C239.518 164.427 240.166 164.894 240.925 164.975C239.829 165.634 241.196 165.703 241.859 165.908C240.748 166.469 242.043 167.094 242.793 167.153C241.638 165.746 243.219 166.634 244.038 166.842C242.606 165.532 244.069 166.512 244.349 165.597Z" fill="#655C5C"/>
<path d="M237.812 164.352C238.469 164.477 239.263 164.782 239.68 165.286C238.986 165.32 238.102 165.04 237.812 164.352Z" fill="#655C5C"/>
<path d="M169.955 175.247C169.955 174.001 169.955 172.756 169.955 171.511C168.906 171.331 170.011 172.246 169.332 172.445C167.648 171.1 165.787 169.491 163.729 168.71C165.413 170.534 168.069 171.368 169.644 173.379C167.225 172.277 165.261 170.045 162.796 169.021C163.216 168.234 163.991 168.467 162.796 167.465C163.842 167.43 164.072 168.47 164.975 168.71C164.495 167.592 162.164 165.401 161.239 166.531C160.807 165.74 159.879 165.196 159.06 164.975C158.071 167.306 162.045 168.42 163.705 169.98C165.606 171.521 168.38 172.585 169.644 174.624C166.024 172.106 162.459 169.532 158.749 167.153C161.227 170.381 166.03 172.037 168.71 174.935C166.845 174.073 165.342 172.479 163.418 171.823C165.214 173.379 167.773 175.617 169.955 175.247Z" fill="#E4002B"/>
<path d="M217.891 166.22C218.921 166.562 219.693 167.841 218.825 168.71C217.95 167.922 218.025 167.228 217.891 166.22Z" fill="#B4A9A8"/>
<path d="M238.435 166.531C239.403 166.848 240.642 167.2 241.236 168.087C240.343 167.62 238.671 167.655 238.435 166.531Z" fill="#655C5C"/>
<path d="M169.955 180.227C169.955 178.982 169.955 177.737 169.955 176.492C169.214 176.489 168.757 176.177 168.087 176.492C168.62 174.889 165.557 174.565 164.585 173.457C163.552 172.165 161.37 171.941 160.928 170.266C162.491 171.325 161.323 169.868 160.617 169.332C159.792 169.781 160.446 170.378 159.06 169.644C161.227 172.308 164.679 173.5 167.153 175.869C165.796 175.552 164.816 174.238 163.418 174.001C164.978 174.932 167.623 177.905 168.71 176.803C169.382 177.656 169.522 178.982 168.71 179.604C169.133 179.81 169.538 180 169.955 180.227Z" fill="#E4002B"/>
<path d="M242.481 171.2C241.635 170.879 240.293 170.456 241.548 171.511C240.632 171.798 240.271 170.609 239.369 170.889C240.801 172.458 243.823 172.439 244.972 174.001C243.092 173.292 241.267 172.436 239.369 171.823C242.525 174.114 245.703 174.45 248.707 175.247C247.611 175.906 248.978 175.975 249.641 176.18C248.383 174.671 249.37 172.666 247.773 171.2C246.982 172.707 244.228 169.563 243.415 171.2C245.018 172.576 246.491 171.013 248.396 173.068C246.684 173.083 242.323 173.323 242.481 171.2Z" fill="#B4A9A8"/>
<path d="M297.888 171.511C300.322 172.719 302.252 174.736 304.736 175.869C302.523 173.827 299.718 172.411 297.265 170.577C297.318 170.979 297.795 171.122 297.888 171.511Z" fill="#F5F6F8"/>
<path d="M163.107 174.001C163.085 172.834 161.703 172.632 160.928 172.134C160.287 173.855 165.031 177.606 165.597 175.869C164.031 175.256 162.344 174.403 161.239 173.068C161.989 173.071 162.397 173.83 163.107 174.001Z" fill="#E4002B"/>
<path d="M212.911 174.624C212.076 174.319 211.746 173.345 211.354 172.756C210.918 174.58 212.167 176.159 213.533 176.803C213.063 175.561 211.88 175.362 212.911 174.624Z" fill="#B4A9A8"/>
<path d="M239.68 172.756C240.832 173.572 242.547 173.516 243.415 174.624C242.204 174.12 240.166 174.104 239.68 172.756Z" fill="#B4A9A8"/>
<path d="M243.415 176.18C242.537 175.225 241.311 174.275 239.991 174.001C239.487 175.505 241.762 176.314 240.303 174.624C241.423 174.879 242.17 176.146 243.415 176.18Z" fill="#B4A9A8"/>
<path d="M248.396 174.313C247.07 175.082 246.581 173.416 248.396 174.313Z" fill="#655C5C"/>
<path d="M158.749 185.519C159.608 184.753 162.145 187.243 163.829 187.28C165.877 186.826 167.785 188.379 169.955 188.32C169.799 185.998 169.939 183.091 169.955 180.538C168.679 180.242 167.673 179.309 166.531 178.671C167.437 177.945 166.005 177.597 167.465 177.425C166.344 176.037 165.438 176.871 166.22 178.359C164.467 177.279 163.191 175.287 161.239 174.624C162.78 176.168 164.249 178.403 166.531 178.982C164.433 179.981 168.747 180.753 169.644 182.095C166.858 181.372 164.782 179.072 162.173 178.048C164.249 180.435 167.62 181.192 169.644 183.651C165.862 181.656 162.419 178.723 158.749 176.492C158.095 177.494 159.291 177.566 159.372 178.359C157.7 177.5 158.712 180.538 158.438 181.472C158.618 182.773 158.061 184.454 158.749 185.519Z" fill="#E4002B"/>
<path d="M247.773 176.803C246.366 176.893 245.439 175.468 244.038 175.558C244.455 176.062 245.249 176.367 245.905 176.492C244.872 177.055 245.224 176.906 245.905 177.737C244.881 177.69 244.178 176.657 243.104 176.803C243.415 177.429 244.449 177.273 244.66 178.048C243.104 177.718 241.853 176.507 240.303 176.18C239.976 177.665 242.951 179.779 241.236 177.737C242.002 177.31 244.088 177.855 242.793 178.671C243.639 178.991 244.984 179.414 243.727 178.359C245.853 179.094 247.96 179.296 249.329 179.293C249.395 178.493 247.81 178.334 249.018 177.737C247.549 178.082 244.937 177.018 247.773 176.803Z" fill="#B4A9A8"/>
<path d="M246.528 175.869C247.673 175.785 248.657 176.32 249.641 176.803C248.663 177.995 247.537 176.243 246.528 175.869Z" fill="#B4A9A8"/>
<path d="M315.631 182.717C315.926 182.689 315.998 182.325 315.942 182.095C312.079 181.537 308.67 177.821 305.047 175.869C308.166 178.615 311.83 181.055 315.631 182.717Z" fill="#F5F6F8"/>
<path d="M211.977 178.671C211.373 178.135 211.211 177.245 211.977 176.803C212.581 177.338 212.742 178.225 211.977 178.671Z" fill="#B4A9A8"/>
<path d="M321.545 186.764C292.957 202.993 264.093 218.899 236.256 236.256C236.256 268.628 236.256 301.001 236.256 333.373C237.034 301.337 236.256 268.619 236.645 236.334C263.695 219.843 291.024 204.285 318.665 188.865C324.25 187.383 322.659 181.388 322.79 176.803C322.79 176.803 322.479 176.79 322.479 176.803C321.931 180 323.621 184.261 321.545 186.764Z" fill="#F5F6F8"/>
<path d="M243.104 178.982C242.404 179.209 241.918 179.253 241.236 178.982C240.732 181.276 242.805 182.207 244.66 182.406C244.041 181.453 242.117 181.615 241.859 180.538C244.495 181.964 248.231 182.088 250.263 183.962C247.954 183.399 247.322 183.072 244.972 182.406C246.475 183.875 248.757 184.407 250.575 185.519C250.59 184.504 249.115 184.697 248.707 183.962C249.787 183.819 250.494 184.84 251.508 184.896C250.914 184.09 250.397 184.136 251.508 183.651C251.29 182.711 249.694 181.512 249.043 182.692C247.166 181.898 247.966 182.166 248.707 181.472C247.197 181.553 246.123 180.252 244.66 180.227C245.261 180.974 246.531 181.039 247.151 181.783C245.753 181.572 244.754 180.84 243.415 180.849C244.452 180.227 242.895 179.953 243.104 178.982Z" fill="#B4A9A8"/>
<path d="M145.676 179.293C146.357 180.255 145.809 181.833 145.987 183.028C145.305 182.067 145.853 180.488 145.676 179.293Z" fill="#E4002B"/>
<path d="M244.66 179.293C246.783 180.407 249.921 179.256 250.886 182.095C248.8 181.304 246.5 180.548 244.66 179.293Z" fill="#B4A9A8"/>
<path d="M252.131 187.386C249.488 184.933 245.367 183.377 241.859 182.095C241.918 184.516 245.199 183.897 246.522 185.525C248.274 186.16 250.21 186.95 251.508 188.32C248.343 187.339 245.753 184.831 242.481 184.273C242.531 186.141 243.543 187.744 243.727 189.565C243.913 187.968 247.58 191.367 246.528 189.565C248.617 188.989 250.764 190.511 253.376 191.433C251.798 190.007 249.466 189.4 247.487 188.606C246.011 188.009 244.088 188.89 243.415 186.141C246.435 187.617 249.591 189.011 252.753 190.188C252.56 189.431 251.53 189.525 251.197 188.943C253.13 189.406 251.502 188.609 252.442 188.009C251.122 187.713 250.391 186.284 252.131 187.386Z" fill="#B4A9A8"/>
<path d="M317.809 182.717C317.809 182.717 317.629 182.661 317.498 182.717C302.903 191.153 288.422 199.159 273.92 207.619C259.754 215.04 246.316 224.007 232.209 231.587C233.302 246.064 232.667 264.183 232.832 280.145C232.832 297.368 232.832 314.594 232.832 331.817C232.539 331.639 232.265 331.459 231.898 331.505C200.491 349.783 169.298 368.541 137.894 386.912C138.345 388.328 140.561 388.409 141.318 389.713C141.838 390.168 142.096 389.651 142.563 389.402C143.789 388.257 145.492 387.556 146.921 386.601C146.921 386.601 147.098 386.654 147.232 386.601C147.571 385.854 148.477 385.77 149.1 385.356C149.1 385.356 149.277 385.409 149.411 385.356C166.325 374.835 183.816 364.924 201.082 354.851C201.082 354.851 201.26 354.904 201.393 354.851C205.997 351.654 211.143 349.015 216.023 346.135C216.023 346.135 216.201 346.188 216.335 346.135C222.183 342.213 228.596 338.886 234.7 335.241C234.7 335.241 234.862 335.269 235.011 335.241C235.086 334.656 235.805 334.786 235.945 334.307C236.153 301.676 235.531 268.631 236.256 236.256C264.093 218.899 292.957 202.993 321.545 186.764C321.314 185.543 320.365 183.645 319.677 182.095C319.123 182.54 318.36 182.266 317.809 182.717Z" fill="#7D0013"/>
<path d="M243.104 183.028C243.723 183.256 244.704 183.196 244.972 183.962C244.352 183.735 243.372 183.794 243.104 183.028Z" fill="#655C5C"/>
<path d="M245.594 183.962C246.933 185.22 249.463 185.139 250.263 186.764C248.859 185.603 246.288 185.677 245.594 183.962Z" fill="#655C5C"/>
<path d="M231.898 331.505C232.265 331.459 232.539 331.639 232.832 331.817C232.832 314.594 232.832 297.368 232.832 280.145C232.667 264.183 233.302 246.064 232.209 231.587C206.931 217.296 181.861 203.13 156.477 189.658C155.188 188.457 150.861 187.641 151.59 186.141C149.987 185.824 144.888 182.904 146.298 185.83C146.332 184.999 146.768 184.432 147.543 184.896C146.339 185.531 148.381 186.272 149.1 186.452C147.537 187.05 149.806 188.339 150.656 188.943C150.071 189.462 149.19 189.179 149.1 189.876C150.314 189.97 152.091 190.605 151.901 192.055C152.654 192.472 155.316 192.625 153.769 193.612C154.858 193.363 155.68 193.898 156.57 194.234C155.45 195.682 159.222 196.447 160.281 197.372C161.728 197.864 163.658 200.22 164.903 199.286C165.815 200.136 169.974 201.154 168.087 202.016C178.048 206.732 186.813 213.903 197.036 217.891C197.278 220.141 201.642 220.568 203.361 222.46C213.269 227.251 222.264 234.233 232.521 238.124C232.521 263.234 232.521 288.341 232.521 313.452C232.113 319.366 233.339 326.114 231.898 331.505Z" fill="#E4002B"/>
<path d="M211.354 188.32C213.237 189.207 215.728 191.912 217.58 190.81C216.565 190.739 213.499 189.982 215.401 189.254C213.788 188.989 212.456 187.532 211.354 186.141C212.69 187.271 213.726 186.58 212.288 185.207C211.675 186.132 211.759 185.251 211.043 184.896C211.214 185.989 210.682 187.461 211.354 188.32Z" fill="#B4A9A8"/>
<path d="M225.673 185.519C224.782 185.416 225.567 186.515 224.428 186.141C224.742 186.673 225.293 187.405 225.984 187.386C224.969 186.085 226.093 186.776 226.918 187.075C226.806 186.297 225.567 186.3 225.673 185.519Z" fill="#B4A9A8"/>
<path d="M244.66 185.83C246.824 186.67 249.227 187.28 250.886 188.943C248.922 187.822 246.014 187.439 244.66 185.83Z" fill="#655C5C"/>
<path d="M212.288 188.32C212.058 186.611 210.666 187.57 212.288 188.32Z" fill="#B4A9A8"/>
<path d="M178.359 190.188C175.253 189.662 171.658 190.228 168.71 189.565C172.124 189.836 175.412 188.152 178.359 190.188Z" fill="#E4002B"/>
<path d="M248.396 190.499C249.622 190.051 251.278 190.779 252.131 191.744C250.942 191.237 249.501 190.944 248.396 190.499Z" fill="#B4A9A8"/>
<path d="M245.283 190.81C247.733 190.683 251.122 191.582 253.376 192.989C250.718 192.186 248.031 191.37 245.283 190.81Z" fill="#B4A9A8"/>
<path d="M253.687 193.612C250.764 192.886 247.502 191.137 244.66 191.433C247.026 192.158 249.7 192.472 251.82 193.612C249.6 193.966 245.877 190.67 244.972 193.3C247.4 193.867 249.734 194.782 252.131 195.479C250.406 196.139 247.963 193.773 246.217 194.545C248.688 195.389 251.667 195.672 253.687 197.347C251.122 196.426 248.52 195.563 245.905 194.857C248.433 196.908 252.109 197.412 255.244 198.281C255.524 197.341 253.046 196.718 254.621 196.102C251.729 194.72 248.676 193.758 245.594 192.989C248.327 192.902 251.499 194.103 254.31 195.168C253.211 194.592 253.915 194.337 253.687 193.612Z" fill="#B4A9A8"/>
<path d="M207.93 194.545C210.268 195.7 213.894 193.552 215.167 195.04C220.708 193.552 227.151 196.326 233.069 196.348C233.318 196.939 235.967 195.495 234.7 197.036C236.785 195.741 237.184 198.013 238.986 196.656C240.427 196.416 241.314 197.447 242.793 196.102C243.916 194.841 243.443 194.844 242.17 195.479C242.444 194.595 244.293 194.038 243.415 192.989C241.818 194.181 241.625 193.447 239.991 193.612C241.868 194.608 240.284 195.022 238.746 195.791C238.108 195.367 239.518 194.903 239.68 194.545C238.681 194.2 238.398 195.551 237.501 195.479C238.469 193.058 234.584 195.89 233.168 195.501C223.758 195.585 215.902 191.093 207.93 194.545Z" fill="#E4002B"/>
<path d="M124.198 194.545C122.178 196.17 119.666 197.316 117.35 198.592C119.389 197.02 121.866 195.685 124.198 194.545Z" fill="#F5F6F8"/>
<path d="M244.349 196.102C244.349 196.102 244.187 196.071 244.038 196.102C243.387 196.071 242.923 196.718 242.481 197.036C243.278 197.204 243.842 196.506 244.349 196.102Z" fill="#E4002B"/>
<path d="M117.039 198.592C110.732 202.607 103.943 206.031 97.4284 209.798C103.635 205.689 110.508 202.212 117.039 198.592Z" fill="#F5F6F8"/>
<path d="M97.1171 209.798C94.1164 211.921 90.6955 213.558 87.4676 215.401C90.3843 213.216 93.8954 211.532 97.1171 209.798Z" fill="#F5F6F8"/>
<path d="M87.1564 215.401C78.945 220.39 70.3352 224.935 61.9433 229.719C70.0021 224.602 78.7115 219.98 87.1564 215.401Z" fill="#F5F6F8"/>
<path d="M61.632 229.719C60.9597 230.398 60.0289 230.859 59.1418 231.276C59.7395 230.532 60.6671 229.89 61.632 229.719Z" fill="#F5F6F8"/>
<path d="M58.8305 231.276C56.9193 232.462 54.8027 234.015 54.1615 236.256C54.3046 233.682 56.6579 232.082 58.8305 231.276Z" fill="#F5F6F8"/>
<path d="M235.945 334.307C236.287 334.298 236.197 333.89 236.256 333.684C236.256 333.684 236.256 333.529 236.256 333.373C236.256 301.001 236.256 268.628 236.256 236.256C235.531 268.631 236.153 301.676 235.945 334.307Z" fill="#E4002B"/>
<path d="M54.1615 236.879C54.1615 238.955 54.1615 241.028 54.1615 243.104C53.6541 241.364 53.6354 238.597 54.1615 236.879Z" fill="#F5F6F8"/>
<path d="M75.742 292.494C67.5617 290.866 70.743 278.079 78.752 279.834C86.6926 281.599 84.1744 294.85 75.742 292.494Z" fill="#F5F6F8"/>
<path d="M127.311 282.013C124.254 283.974 117.602 283.909 118.595 288.861C118.909 298.925 117.947 309.312 119.115 319.157C120.908 328.645 133.113 328.583 140.384 326.214C137.57 324.801 135.684 321.57 133.293 319.92C123.208 319.525 128.689 306.383 127.311 299.756C130.735 299.756 134.159 299.756 137.583 299.756C132.602 306.906 133.754 318.018 141.1 323.319C148.253 329.018 158.911 328.271 166.22 323.412C165.647 320.872 163.947 318.718 163.107 316.253C159.848 317.906 156.695 320.153 152.835 319.988C149.89 320.869 143.024 317.094 148.259 315.101C153.983 311.606 159.667 308.026 165.364 304.503C170.201 303.152 166.291 299.304 164.274 297.032C154.139 288.933 139.584 294.022 127.311 292.596C127.311 289.07 127.311 285.54 127.311 282.013Z" fill="#F5F6F8"/>
<path d="M119.84 326.525C112.945 319.033 118.598 307.204 115.414 298.268C112.472 290.075 98.7637 289.042 94.3156 296.332C94.8448 292.727 91.9095 292.005 88.7127 292.596C84.6849 291.376 85.1082 295.541 85.2887 298.199C85.295 307.326 85.2763 316.455 85.2981 325.582C86.87 327.664 91.0691 326.002 93.6682 326.5C95.1467 324.387 93.9079 320.801 94.3156 318.121C94.8697 312.63 92.8869 306.159 96.1055 301.545C98.8229 297.602 106.897 297.589 107.458 303.111C108.024 309.004 107.539 315.217 107.7 321.233C108.121 323.58 106.76 327.574 110.813 326.525C113.823 326.525 116.83 326.525 119.84 326.525Z" fill="#F5F6F8"/>
<path d="M198.592 295.087C189.301 288.653 173.952 291.168 169.311 302.224C161.582 317.869 181.765 334.198 196.03 325.208C201.079 323.443 195.7 320.212 194.545 317.498C187.713 322.668 175.679 318.544 176.18 309.094C176.211 299.603 188.083 296.876 194.857 301.312C195.71 299.09 198.119 297.471 198.592 295.087Z" fill="#F5F6F8"/>
<path d="M82.176 293.53C79.029 295.252 75.3965 294.809 72.2153 293.53C72.2153 303.282 72.2153 313.038 72.2153 322.79C70.2325 328.872 78.7395 325.803 82.176 326.525C82.176 315.528 82.176 304.527 82.176 293.53Z" fill="#F5F6F8"/>
<path d="M157.815 301.001C153.146 297.567 145.865 299.805 143.425 304.976C141.778 306.909 141.57 312.745 145.028 309.38C149.249 306.653 154.438 304.605 157.815 301.001Z" fill="#E4002B"/>
<path d="M54.4727 333.684C56.2719 336.657 60.1659 337.538 62.5658 339.91C59.8982 337.855 55.8081 336.978 54.4727 333.684Z" fill="#F5F6F8"/>
<path d="M235.945 334.307C235.805 334.786 235.086 334.656 235.011 335.241C235.633 335.291 236.947 334.182 236.256 333.684C236.197 333.89 236.287 334.298 235.945 334.307Z" fill="#F5F6F8"/>
<path d="M234.7 335.241C228.873 339.244 222.52 342.618 216.335 346.135C222.183 342.213 228.596 338.886 234.7 335.241Z" fill="#F5F6F8"/>
<path d="M62.8771 339.91C66.0894 341.983 69.5881 343.779 72.5265 346.135C69.2582 344.162 65.8093 342.275 62.8771 339.91Z" fill="#F5F6F8"/>
<path d="M72.8378 346.135C81.2671 351.374 89.8551 356.554 98.0509 362.01C89.5594 356.88 80.934 351.76 72.8378 346.135Z" fill="#F5F6F8"/>
<path d="M216.023 346.135C211.463 349.407 206.296 352.012 201.393 354.851C205.997 351.654 211.143 349.015 216.023 346.135Z" fill="#F5F6F8"/>
<path d="M201.082 354.851C184.221 365.307 166.593 375.202 149.411 385.356C166.325 374.835 183.816 364.924 201.082 354.851Z" fill="#F5F6F8"/>
<path d="M141.318 389.713C140.561 388.409 138.345 388.328 137.894 386.912C124.957 378.392 111.489 370.396 98.3622 362.01C112.236 371.716 127.815 379.989 141.318 389.713Z" fill="#F5F6F8"/>
<path d="M149.1 385.356C148.76 386.103 147.855 386.187 147.232 386.601C147.571 385.854 148.477 385.77 149.1 385.356Z" fill="#F5F6F8"/>
<path d="M146.921 386.601C145.803 387.973 144.113 388.655 142.563 389.402C143.789 388.257 145.492 387.556 146.921 386.601Z" fill="#F5F6F8"/>
</svg>
