<svg width="24" height="24" viewBox="0 0 24 24" fill="none" xmlns="http://www.w3.org/2000/svg">
<path d="M15.1875 2.60625C14.1188 3.03281 13.2047 3.41719 13.1625 3.45469C13.0406 3.5625 13.0594 3.79219 13.2188 4.19531C13.2984 4.39219 13.3594 4.56094 13.3594 4.57031C13.3594 4.58438 12.7594 4.59375 12.0234 4.59375H10.6875V4.03594C10.6875 3.54375 10.6781 3.46875 10.5891 3.35625L10.4953 3.23438H8.45625C7.21406 3.23438 6.38438 3.25313 6.32813 3.28125C6.18281 3.36094 6.14063 3.59531 6.14063 4.3875V5.15156L4.71094 5.16563C3.29531 5.17969 3.28125 5.17969 3.17813 5.2875L3.07031 5.39531L3.05625 11.1563L3.04688 16.9219H1.85156C1.07813 16.9219 0.61875 16.9406 0.548438 16.9734C0.346875 17.0625 0.328125 17.1891 0.328125 18.3234C0.328125 19.3313 0.332813 19.4016 0.426563 19.5141L0.520313 19.6406L1.79531 19.65L3.07031 19.6641L3.08438 20.8172C3.09375 21.9188 3.09844 21.975 3.19219 22.0594C3.28125 22.1391 3.38438 22.1484 4.11563 22.1625C5.05313 22.1813 5.2125 22.1625 5.34375 22.0219C5.43281 21.9234 5.4375 21.8531 5.4375 20.7797V19.6406H12H18.5625V20.7797C18.5625 21.8531 18.5672 21.9234 18.6563 22.0219C18.7875 22.1625 18.9469 22.1813 19.8844 22.1625C20.6063 22.1484 20.7281 22.1391 20.7984 22.0641C20.8734 21.9891 20.8875 21.8531 20.9063 20.8219L20.9297 19.6641L22.2047 19.65L23.4797 19.6406L23.5734 19.5141C23.6672 19.4016 23.6719 19.3313 23.6719 18.3234C23.6719 17.1891 23.6531 17.0625 23.4516 16.9734C23.3813 16.9406 22.8891 16.9219 22.0406 16.9219L20.7422 16.9172L21.7547 16.5094C22.3125 16.2844 22.8047 16.0734 22.8469 16.0359C23.0344 15.8766 23.2266 16.3922 19.6547 7.43906C17.6906 2.51719 17.4563 1.95469 17.3391 1.89375C17.2641 1.85625 17.1891 1.82813 17.1703 1.83281C17.1516 1.83281 16.2563 2.18438 15.1875 2.60625ZM17.3625 3.65625C17.5594 4.1625 17.7188 4.59375 17.7188 4.62188C17.7188 4.6875 14.7188 5.87813 14.6766 5.83125C14.6063 5.75625 13.9031 3.9375 13.9313 3.90938C13.9922 3.85313 16.9453 2.69063 16.9734 2.71406C16.9922 2.72813 17.1656 3.15469 17.3625 3.65625ZM9.9375 4.92188V5.90625H8.41406H6.89063V4.92188V3.9375H8.41406H9.9375V4.92188ZM13.0313 5.85938V6.42188H11.8594H10.6875V5.85938V5.29688H11.8594H13.0313V5.85938ZM19.5094 9.08438C20.325 11.1375 21 12.8484 21.0094 12.8813C21.0188 12.9234 20.5219 13.1438 19.5047 13.5516C18.6703 13.8891 17.9859 14.1563 17.9813 14.1469C17.9531 14.1094 15.0047 6.67031 14.9906 6.61406C14.9813 6.56719 15.4031 6.375 16.4766 5.94844C17.3016 5.62031 17.9859 5.34844 18 5.34844C18.0141 5.34375 18.6938 7.02656 19.5094 9.08438ZM14.3813 7.125C14.7891 8.15625 18.0141 16.2469 18.2672 16.8609C18.2859 16.9078 17.8219 16.9219 16.0359 16.9219H13.7813V11.2875C13.7813 8.18906 13.7906 5.66719 13.8 5.67656C13.8094 5.68594 14.0719 6.3375 14.3813 7.125ZM6.14063 6.67969V7.45313H4.96875H3.79688V6.67969V5.90625H4.96875H6.14063V6.67969ZM9.9375 10.4297V14.25H8.41406H6.89063V10.4297V6.60938H8.41406H9.9375V10.4297ZM13.0313 7.42969V7.73438H11.8594H10.6875V7.42969V7.125H11.8594H13.0313V7.42969ZM6.14063 11.4141V14.625H4.96875H3.79688V11.4141V8.20313H4.96875H6.14063V11.4141ZM13.0313 11.1094V13.7344H11.8594H10.6875V11.1094V8.48438H11.8594H13.0313V11.1094ZM21.7125 14.5781C21.9141 15.0797 22.0734 15.5156 22.0781 15.5438C22.0781 15.6094 19.0828 16.8047 19.0313 16.7531C18.9844 16.7016 18.2813 14.9531 18.2813 14.8828C18.2813 14.8219 21.1734 13.6453 21.2813 13.6547C21.3234 13.6641 21.4828 14.0016 21.7125 14.5781ZM13.0313 14.7891V15.0938H11.8594H10.6875V14.7891V14.4844H11.8594H13.0313V14.7891ZM9.9375 15.9609V16.9219H8.41406H6.89063V15.9609V15H8.41406H9.9375V15.9609ZM6.14063 16.1484V16.9219H4.96875H3.79688V16.1484V15.375H4.96875H6.14063V16.1484ZM13.0313 16.3828V16.9219H11.8594H10.6875V16.3828V15.8438H11.8594H13.0313V16.3828ZM22.9219 18.3047V18.9375H12H1.07813V18.3047V17.6719H12H22.9219V18.3047ZM4.73438 20.5547V21.4219H4.26563H3.79688V20.5547V19.6875H4.26563H4.73438V20.5547ZM20.2031 20.5547V21.4219H19.7344H19.2656V20.5547V19.6875H19.7344H20.2031V20.5547Z" fill="#E4002B"/>
<path d="M17.3672 8.10939C16.6312 8.40001 16.5 8.49376 16.5 8.72345C16.5 8.93907 16.6781 9.0797 16.9219 9.05157C17.1 9.02814 18.3141 8.5172 18.3891 8.42814C18.5531 8.23126 18.4406 7.90782 18.1875 7.85626C18.1078 7.83751 17.8359 7.92189 17.3672 8.10939Z" fill="#E4002B"/>
<path d="M17.8126 9.42656C17.4376 9.58125 17.1048 9.74063 17.0767 9.78281C16.9314 9.975 17.1048 10.3594 17.3392 10.3594C17.4845 10.3594 18.7642 9.84375 18.8814 9.73594C19.1017 9.52969 18.9376 9.13594 18.6283 9.14531C18.5533 9.14531 18.1876 9.27188 17.8126 9.42656Z" fill="#E4002B"/>
<path d="M18.408 10.6828C18.0236 10.8375 17.6721 10.9969 17.6205 11.0438C17.5033 11.1516 17.5033 11.4094 17.6252 11.5313C17.7143 11.6203 17.7986 11.6438 17.9533 11.6297C18.1315 11.6063 19.3455 11.0953 19.4205 11.0063C19.5846 10.8094 19.4721 10.4859 19.219 10.4297C19.1393 10.4156 18.8721 10.4953 18.408 10.6828Z" fill="#E4002B"/>
<path d="M8.10479 9.44063C7.30791 9.72188 7.1251 10.7156 7.76729 11.2453C8.26885 11.6625 9.0376 11.5078 9.3376 10.9266C9.56729 10.4906 9.49698 10.0453 9.1501 9.68907C8.88291 9.4172 8.45635 9.31407 8.10479 9.44063ZM8.68604 10.275C8.77041 10.3875 8.77041 10.4156 8.71885 10.5422C8.5876 10.8563 8.10948 10.7813 8.10948 10.4438C8.10948 10.1344 8.49854 10.0172 8.68604 10.275Z" fill="#E4002B"/>
</svg>
