<svg width="24" height="24" viewBox="0 0 24 24" fill="none" xmlns="http://www.w3.org/2000/svg">
<g clip-path="url(#clip0_54846_115684)">
<path d="M10.9679 1.104C10.8719 1.2 10.7999 1.536 10.7999 1.824C10.7999 2.112 10.6319 2.544 10.4159 2.736C10.0799 3.096 9.98388 3.072 9.35988 2.64C8.47188 2.016 8.37588 2.04 7.58388 2.856L6.91188 3.576L7.39188 4.368C7.96788 5.304 7.84788 5.592 6.71988 5.904C5.92788 6.12 5.87988 6.192 5.87988 7.2C5.87988 8.208 5.92788 8.256 6.69588 8.424C7.77588 8.64 7.99188 9.072 7.41588 9.864C6.81588 10.704 6.83988 10.824 7.65588 11.616L8.37588 12.288L9.16788 11.808C10.1039 11.232 10.3919 11.352 10.7039 12.48C10.9199 13.272 10.9919 13.32 11.9999 13.32C13.0079 13.32 13.0559 13.272 13.2719 12.48C13.5599 11.376 13.8719 11.208 14.6639 11.784C15.5039 12.384 15.6239 12.36 16.4159 11.544L17.0879 10.824L16.6079 10.032C16.0319 9.096 16.1519 8.808 17.2799 8.496C18.0719 8.28 18.1199 8.208 18.1199 7.2C18.1199 6.192 18.0719 6.144 17.2799 5.928C16.1759 5.64 16.0079 5.328 16.5839 4.536C17.1839 3.696 17.1599 3.576 16.3439 2.784L15.6239 2.112L14.8319 2.592C13.8959 3.168 13.6079 3.048 13.2959 1.92C13.0799 1.152 12.9839 1.08 12.0959 1.008C11.5679 0.96 11.0639 1.008 10.9679 1.104ZM12.4799 2.64C12.4799 3.24 12.6239 3.432 13.2959 3.768C14.1119 4.152 14.3759 4.104 15.1679 3.552C15.7919 3.096 15.9599 3.504 15.4799 4.392C15.0959 5.136 15.0959 5.256 15.4319 5.928C15.6959 6.432 16.0559 6.696 16.5599 6.816C17.4719 6.984 17.3999 7.536 16.4639 7.632C16.0079 7.704 15.6959 7.944 15.4319 8.52C15.0479 9.312 15.0959 9.576 15.6479 10.368C16.1039 10.992 15.6959 11.16 14.8079 10.68C14.0639 10.296 13.9439 10.296 13.2719 10.632C12.7679 10.896 12.5039 11.256 12.3839 11.76C12.2159 12.672 11.6639 12.6 11.5679 11.664C11.4959 11.208 11.2559 10.896 10.6799 10.632C9.88788 10.248 9.62388 10.296 8.83188 10.848C8.20788 11.304 8.03988 10.896 8.51988 10.008C8.90388 9.264 8.90388 9.144 8.56788 8.472C8.30388 7.992 7.94388 7.704 7.43988 7.608C6.45588 7.392 6.45588 6.72 7.43988 6.72C8.03988 6.72 8.23188 6.576 8.56788 5.856C8.90388 5.184 8.92788 4.944 8.68788 4.608C7.87188 3.456 8.06388 3.096 9.19188 3.72C9.93588 4.104 10.0559 4.104 10.7279 3.768C11.2079 3.504 11.4959 3.144 11.5919 2.64C11.8079 1.656 12.4799 1.656 12.4799 2.64Z" fill="black"/>
<path d="M10.8238 5.136C9.69576 5.76 9.31176 7.152 9.93576 8.376C10.7758 9.96 13.2238 9.96 14.0638 8.376C14.6158 7.296 14.4718 6.504 13.5838 5.616C12.6958 4.728 11.8318 4.584 10.8238 5.136ZM12.9598 6.24C14.2798 7.56 12.3838 9.48 10.9918 8.232C10.3918 7.68 10.4398 6.6 11.0878 6.144C11.8078 5.64 12.3838 5.664 12.9598 6.24Z" fill="black"/>
<path d="M4.41596 14.016C2.44796 14.784 0.959961 15.552 0.959961 15.84C0.959961 16.392 1.63196 16.296 3.76796 15.36C5.75996 14.472 6.23996 14.352 7.34396 14.448C8.37596 14.544 8.78396 14.712 9.55196 15.408C10.512 16.272 11.808 16.704 14.016 16.848C15.096 16.92 15.72 17.592 15.12 18.024C14.808 18.24 11.352 18.192 8.87996 17.952C8.47196 17.904 8.27996 18 8.27996 18.24C8.27996 18.768 10.104 19.152 12.768 19.176L15.072 19.2L17.664 17.496C20.568 15.576 21.504 15.168 21.888 15.552C22.296 15.96 21.768 16.464 18.72 18.432C14.736 21.048 12.912 22.08 12.336 22.08C12.048 22.08 10.632 21.48 9.14396 20.76C7.65596 20.04 6.16796 19.44 5.80796 19.44C5.01596 19.44 3.35996 20.52 3.35996 21C3.35996 21.48 3.81596 21.456 4.75196 20.88C5.18396 20.616 5.68796 20.4 5.87996 20.4C6.04796 20.4 7.41596 21 8.90396 21.72C10.392 22.44 11.904 23.04 12.288 23.04C13.224 23.04 14.352 22.44 18.768 19.56C23.184 16.656 23.688 16.008 22.536 14.856C22.152 14.472 21.84 14.376 21.24 14.472C20.808 14.544 20.328 14.472 20.184 14.328C19.896 14.04 17.856 13.632 16.44 13.608C15.696 13.584 15.12 13.8 13.872 14.616C12.072 15.744 11.256 15.792 10.416 14.832C9.71996 14.064 8.15996 13.44 6.95996 13.464C6.35996 13.464 5.23196 13.704 4.41596 14.016ZM17.04 14.568C17.04 14.904 15.144 15.84 14.496 15.84C13.704 15.84 13.896 15.624 15.24 14.904C16.2 14.4 17.04 14.256 17.04 14.568ZM19.44 15.048C19.44 15.288 16.728 17.04 16.368 17.04C15.696 17.04 16.176 16.368 17.328 15.648C18.528 14.928 19.44 14.664 19.44 15.048Z" fill="black"/>
</g>
<defs>
<clipPath id="clip0_54846_115684">
<rect width="24" height="24" fill="white"/>
</clipPath>
</defs>
</svg>
