<svg width="24" height="24" viewBox="0 0 24 24" fill="none" xmlns="http://www.w3.org/2000/svg">
<path d="M5.68775 3.384C4.72775 3.936 4.27175 5.736 4.82375 6.792C5.49575 8.112 7.41575 8.592 8.61575 7.776C10.6797 6.312 9.62375 3.12 7.10375 3.12C6.57575 3.12 5.92775 3.24 5.68775 3.384ZM7.87175 4.848C8.54375 5.52 8.03975 6.72 7.07975 6.72C6.43175 6.72 5.99975 6.288 5.99975 5.64C5.99975 4.992 6.43175 4.56 7.07975 4.56C7.36775 4.56 7.70375 4.68 7.87175 4.848Z" fill="black"/>
<path d="M12.7201 5.64C12.7201 5.88 12.4801 6 12.0001 6C11.3521 6 11.2801 6.072 11.2801 6.72V7.44H15.0001H18.7201V11.28V15.12H14.6401H10.5601V15.84C10.5601 16.512 10.6321 16.56 11.4001 16.56C11.8561 16.56 12.2401 16.608 12.2401 16.68C12.2401 16.752 11.8561 17.568 11.4001 18.48L10.5601 20.16H11.2801C11.9041 20.16 12.0721 19.992 12.7441 18.672L13.5121 17.16L14.2561 18.672C14.8801 19.968 15.0721 20.16 15.6481 20.16C16.0081 20.16 16.3201 20.112 16.3201 20.04C16.3201 19.968 15.9361 19.152 15.4801 18.24L14.6401 16.56H17.4001H20.1601V11.28V6H17.1601C14.6641 6 14.1601 5.952 14.1601 5.64C14.1601 5.4 13.9201 5.28 13.4401 5.28C12.9601 5.28 12.7201 5.4 12.7201 5.64Z" fill="black"/>
<path d="M5.08784 9.504C4.10384 10.176 3.83984 11.088 3.83984 13.632V16.032L4.55984 16.32L5.27984 16.608V18.864V21.12H5.99984H6.71984V18.384V15.648L5.99984 15.36C5.27984 15.072 5.27984 15.048 5.27984 13.2C5.27984 10.92 5.56784 10.56 7.41584 10.56C8.56784 10.56 8.75984 10.656 9.81584 11.64C10.9438 12.696 11.0158 12.72 12.5758 12.72H14.1598V12C14.1598 11.28 14.1358 11.28 12.8878 11.28C11.7838 11.28 11.5198 11.184 10.8958 10.536C10.5118 10.128 9.91184 9.648 9.55184 9.456C8.63984 8.976 5.78384 9 5.08784 9.504Z" fill="black"/>
<path d="M7.48802 18.408L7.56002 21H8.28002H9.00002L9.07202 18.408L9.14402 15.84H8.28002H7.41602L7.48802 18.408Z" fill="black"/>
</svg>
