<svg width="16" height="21" viewBox="0 0 16 21" fill="none" xmlns="http://www.w3.org/2000/svg">
<path d="M6.53614 1.232C4.56814 1.976 3.44014 3.296 3.08014 5.312C2.55214 8.072 5.09614 11 8.00014 11C10.9041 11 13.4001 8.096 12.9201 5.288C12.4161 2.312 9.17614 0.248 6.53614 1.232ZM9.84814 3.08C11.3601 3.992 11.9601 6.488 10.9761 7.808C10.0881 8.984 9.24814 9.44 8.00014 9.44C6.10414 9.44 4.61614 8.024 4.59214 6.176C4.54414 4.064 5.96014 2.6 8.00014 2.6C8.64814 2.6 9.39214 2.792 9.84814 3.08Z" fill="black"/>
<path d="M1.16008 13.208C0.320078 13.664 0.0800781 14.168 0.0800781 15.488C0.0800781 17.024 0.704078 18.416 1.73608 19.16C4.73608 21.272 9.46408 21.584 12.9921 19.856C14.8881 18.92 15.7041 17.792 15.8721 15.896C15.9921 14.384 15.6801 13.592 14.7921 13.184C14.0001 12.824 1.83208 12.824 1.16008 13.208ZM14.4321 15.8C14.2881 17.264 13.7361 17.936 12.0081 18.728C10.9281 19.208 10.3761 19.28 8.00008 19.28C5.62408 19.28 5.07208 19.208 3.99208 18.728C2.26408 17.936 1.71208 17.264 1.56808 15.8L1.44808 14.6H8.00008H14.5521L14.4321 15.8Z" fill="black"/>
</svg>
