<svg width="24" height="24" viewBox="0 0 24 24" fill="none" xmlns="http://www.w3.org/2000/svg">
<path d="M5.25 2.68595C5.02031 2.76095 4.62656 3.16407 4.55625 3.40313C4.51406 3.54845 4.5 4.93595 4.49531 9.16876V14.7422L4.13438 14.9156C3.28125 15.3281 2.61094 16.1531 2.35781 17.1094C2.24531 17.5219 2.24531 18.3844 2.35781 18.7969C2.67656 19.9922 3.61406 20.9344 4.82813 21.2672C5.11406 21.3469 5.54063 21.3516 11.6484 21.3516C18.8813 21.3516 18.3563 21.375 19.1531 21.0422C21.0703 20.2453 22.1438 18.1313 21.6094 16.2188C21.4125 15.5109 20.9672 14.7656 20.4656 14.3063L20.25 14.1094V9.22501C20.25 5.53126 20.2359 4.29845 20.1938 4.15313C20.1188 3.89532 19.7297 3.50626 19.4719 3.43126C19.3406 3.39376 18.8672 3.37501 18 3.37501C17.1328 3.37501 16.6594 3.39376 16.5281 3.43126C16.2703 3.50626 15.8813 3.89532 15.8063 4.15313C15.7734 4.26563 15.75 4.62188 15.75 4.99688V5.64845H14.25H12.75V4.62188C12.75 3.95626 12.7313 3.5297 12.6938 3.40313C12.6188 3.14532 12.2297 2.75626 11.9719 2.68126C11.7094 2.60626 9.26719 2.60157 9.04219 2.68126C8.95313 2.70938 8.82656 2.77501 8.75625 2.82188C8.625 2.91095 8.625 2.91095 8.49844 2.82188C8.42344 2.77501 8.29688 2.70938 8.20781 2.68126C7.99688 2.60626 5.47969 2.61563 5.25 2.68595ZM8.13281 3.4922L8.25 3.6047V7.38282V11.1563L8.00156 11.4094C7.20469 12.2016 6.65156 13.2891 6.4875 14.3672C6.45938 14.5828 6.45469 14.5875 6.31406 14.5594C6.23906 14.5453 5.96719 14.5313 5.71406 14.5313H5.25V9.07032V3.6047L5.36719 3.4922L5.47969 3.37501H6.75H8.02031L8.13281 3.4922ZM11.8828 3.4922L12 3.6047V6.67032V9.73595L11.5969 9.76876C10.8141 9.82501 10.1438 10.0219 9.38906 10.4016L9 10.5938V7.10157V3.6047L9.11719 3.4922L9.22969 3.37501H10.5H11.7703L11.8828 3.4922ZM19.3828 4.2422L19.5 4.3547V8.97657C19.5 11.5172 19.4906 13.5938 19.4813 13.5938C19.4672 13.5938 19.3078 13.5328 19.1156 13.4578C18.6563 13.275 18.1172 13.1672 17.5922 13.1578L17.1656 13.1484L17.0344 12.8719C16.9594 12.7172 16.8141 12.4547 16.7016 12.2859L16.5 11.9766V8.16563V4.3547L16.6172 4.2422L16.7297 4.12501H18H19.2703L19.3828 4.2422ZM15.6328 6.4922L15.75 6.6047V8.88282V11.1563L15.4594 10.9313C14.7516 10.3828 13.95 10.0219 13.0219 9.84376L12.75 9.7922V8.19845V6.6047L12.8672 6.4922L12.9797 6.37501H14.25H15.5203L15.6328 6.4922ZM13.2188 10.6547C14.0672 10.875 14.8359 11.3156 15.4547 11.9344C15.8109 12.2953 16.2422 12.9047 16.425 13.3266C16.6219 13.7625 17.025 14.0016 17.4141 13.9031C17.6063 13.8563 18.3469 13.9594 18.7125 14.0906C19.5141 14.3766 20.2547 15.0281 20.6156 15.7594C20.8922 16.3266 20.9719 16.6594 20.9719 17.2969C20.9719 17.7516 20.9484 17.8922 20.8453 18.2109C20.6672 18.7547 20.4188 19.1391 19.9688 19.5984C19.6359 19.9359 19.4953 20.0344 19.125 20.2172C18.2813 20.6344 18.9 20.6016 11.6484 20.6016H5.22656L4.88438 20.4891C4.05938 20.2172 3.40781 19.5656 3.13594 18.7406C2.98125 18.2625 2.97656 17.5922 3.13125 17.1469C3.37031 16.4578 3.89063 15.8625 4.52344 15.5625C5.01563 15.3281 5.31094 15.2672 5.83125 15.2813C6.7125 15.3094 6.71719 15.3094 6.88125 15.1969C7.08281 15.0516 7.14844 14.9063 7.25625 14.3859C7.65469 12.4313 9.22031 10.9172 11.1938 10.5656C11.7422 10.4719 12.6656 10.5094 13.2188 10.6547Z" fill="#E4002B"/>
<path d="M5.92969 4.61719C5.85469 4.6875 5.8125 4.78594 5.8125 4.875C5.8125 4.96406 5.85469 5.0625 5.92969 5.13281C6.0375 5.24531 6.06094 5.25 6.75 5.25C7.43906 5.25 7.4625 5.24531 7.57031 5.13281C7.64531 5.0625 7.6875 4.96406 7.6875 4.875C7.6875 4.78594 7.64531 4.6875 7.57031 4.61719C7.4625 4.50469 7.43906 4.5 6.75 4.5C6.06094 4.5 6.0375 4.50469 5.92969 4.61719Z" fill="#E4002B"/>
<path d="M5.92969 5.74219C5.85469 5.8125 5.8125 5.91094 5.8125 6C5.8125 6.08906 5.85469 6.1875 5.92969 6.25781C6.0375 6.37031 6.06094 6.375 6.75 6.375C7.43906 6.375 7.4625 6.37031 7.57031 6.25781C7.64531 6.1875 7.6875 6.08906 7.6875 6C7.6875 5.91094 7.64531 5.8125 7.57031 5.74219C7.4625 5.62969 7.43906 5.625 6.75 5.625C6.06094 5.625 6.0375 5.62969 5.92969 5.74219Z" fill="#E4002B"/>
<path d="M9.67969 4.61719C9.60469 4.6875 9.5625 4.78594 9.5625 4.875C9.5625 4.96406 9.60469 5.0625 9.67969 5.13281C9.7875 5.24531 9.81094 5.25 10.5 5.25C11.1891 5.25 11.2125 5.24531 11.3203 5.13281C11.3953 5.0625 11.4375 4.96406 11.4375 4.875C11.4375 4.78594 11.3953 4.6875 11.3203 4.61719C11.2125 4.50469 11.1891 4.5 10.5 4.5C9.81094 4.5 9.7875 4.50469 9.67969 4.61719Z" fill="#E4002B"/>
<path d="M9.67969 5.74219C9.60469 5.8125 9.5625 5.91094 9.5625 6C9.5625 6.08906 9.60469 6.1875 9.67969 6.25781C9.7875 6.37031 9.81094 6.375 10.5 6.375C11.1891 6.375 11.2125 6.37031 11.3203 6.25781C11.3953 6.1875 11.4375 6.08906 11.4375 6C11.4375 5.91094 11.3953 5.8125 11.3203 5.74219C11.2125 5.62969 11.1891 5.625 10.5 5.625C9.81094 5.625 9.7875 5.62969 9.67969 5.74219Z" fill="#E4002B"/>
<path d="M17.1797 5.36719C17.1047 5.4375 17.0625 5.53594 17.0625 5.625C17.0625 5.71406 17.1047 5.8125 17.1797 5.88281C17.2875 5.99531 17.3109 6 18 6C18.6891 6 18.7125 5.99531 18.8203 5.88281C18.8953 5.8125 18.9375 5.71406 18.9375 5.625C18.9375 5.53594 18.8953 5.4375 18.8203 5.36719C18.7125 5.25469 18.6891 5.25 18 5.25C17.3109 5.25 17.2875 5.25469 17.1797 5.36719Z" fill="#E4002B"/>
<path d="M17.1797 6.49219C17.1047 6.5625 17.0625 6.66094 17.0625 6.75C17.0625 6.83906 17.1047 6.9375 17.1797 7.00781C17.2875 7.12031 17.3109 7.125 18 7.125C18.6891 7.125 18.7125 7.12031 18.8203 7.00781C18.8953 6.9375 18.9375 6.83906 18.9375 6.75C18.9375 6.66094 18.8953 6.5625 18.8203 6.49219C18.7125 6.37969 18.6891 6.375 18 6.375C17.3109 6.375 17.2875 6.37969 17.1797 6.49219Z" fill="#E4002B"/>
<path d="M13.4297 7.61719C13.3547 7.6875 13.3125 7.78594 13.3125 7.875C13.3125 7.96406 13.3547 8.0625 13.4297 8.13281C13.5375 8.24531 13.5609 8.25 14.25 8.25C14.9391 8.25 14.9625 8.24531 15.0703 8.13281C15.1453 8.0625 15.1875 7.96406 15.1875 7.875C15.1875 7.78594 15.1453 7.6875 15.0703 7.61719C14.9625 7.50469 14.9391 7.5 14.25 7.5C13.5609 7.5 13.5375 7.50469 13.4297 7.61719Z" fill="#E4002B"/>
<path d="M13.4297 8.74219C13.3547 8.8125 13.3125 8.91094 13.3125 9C13.3125 9.08906 13.3547 9.1875 13.4297 9.25781C13.5375 9.37031 13.5609 9.375 14.25 9.375C14.9391 9.375 14.9625 9.37031 15.0703 9.25781C15.1453 9.1875 15.1875 9.08906 15.1875 9C15.1875 8.91094 15.1453 8.8125 15.0703 8.74219C14.9625 8.62969 14.9391 8.625 14.25 8.625C13.5609 8.625 13.5375 8.62969 13.4297 8.74219Z" fill="#E4002B"/>
</svg>
